<?xml version="1.0" encoding="utf-8"?>
<!-- Generator: Adobe Illustrator 22.0.0, SVG Export Plug-In . SVG Version: 6.00 Build 0)  -->
<svg version="1.1"
	 id="svg3" inkscape:version="1.0 (4035a4fb49, 2020-05-01)" sodipodi:docname="ultrasecreto.svg" xmlns:cc="http://creativecommons.org/ns#" xmlns:dc="http://purl.org/dc/elements/1.1/" xmlns:inkscape="http://www.inkscape.org/namespaces/inkscape" xmlns:rdf="http://www.w3.org/1999/02/22-rdf-syntax-ns#" xmlns:sodipodi="http://sodipodi.sourceforge.net/DTD/sodipodi-0.dtd" xmlns:svg="http://www.w3.org/2000/svg"
	 xmlns="http://www.w3.org/2000/svg" xmlns:xlink="http://www.w3.org/1999/xlink" x="0px" y="0px" viewBox="0 0 522.8 95.5"
	 style="enable-background:new 0 0 522.8 95.5;" xml:space="preserve">
<style type="text/css">
	.st0{fill:#AA000E;}
</style>
<sodipodi:namedview  bordercolor="#666666" borderopacity="1" gridtolerance="10" guidetolerance="10" id="namedview5" inkscape:current-layer="svg3" inkscape:cx="195.52613" inkscape:cy="-25.076779" inkscape:pageopacity="0" inkscape:pageshadow="2" inkscape:window-height="705" inkscape:window-maximized="1" inkscape:window-width="1366" inkscape:window-x="-8" inkscape:window-y="-8" inkscape:zoom="1.1160822" objecttolerance="10" pagecolor="#ffffff" showgrid="false">
	</sodipodi:namedview>
<path id="ultrasecreto" class="st0" d="M0.2,27.5l0,0.2L0.9,29l-0.1,1.8l0,0.3l0.4,0.5c0.4,0,0.8-0.4,1.3-1.2l0.3,0L3,30.5l-0.3,0.7
	L3,31.8L3,32l-1-0.1c-1.2,0.4-1.8,0.7-1.7,1.1l0,0.2l0.7,1.6c3.5-0.1,6.9-0.5,10.3-1.2l0.2,0.6l3.1-0.3l13-0.4c2.7,0,5.5-0.6,8-1.7
	l0.2,0l-0.3,1l0,0.2l1-0.2l8.7-0.3l0.3,0c1.7-0.1,3.2-0.7,4.5-1.7l-0.9-1.3l1.1-0.4c0.5,0.5,1.1,0.8,1.8,0.7l-0.1,0.8l0.1,1.1
	l0.3,0.3l0.5,0c0.7,0,1.4-0.2,2.1-0.4l1,0.3l0-0.2l0.2-0.2l0-0.7c-0.1-1.2-0.3-1.8-0.7-1.8c0.5-0.7,0.6-1.6,0.5-2.5L55.4,25
	l-0.8,0.2L48.9,27l-0.3,0l0.3-1c0-0.5-5.7-0.6-17.1-0.3l-3.4,0.2c-5.9,0.2-11.7,1-17.5,2.2l0.6-0.9l0-0.3L0.2,27.5z M12.9,29
	l2.6-1.4c0,0.5,0.2,1.1,0.6,1.4l0,0.8l-0.7,0l-1.6,0.6l-0.9-1.1L12.9,29z M26.2,29l0.3-0.3l0.5,0c0.9,0,1.7,0.3,2.5,0.7L29.2,30
	l0.3,0.3l0.8-0.2l0,0.7l-0.8,0.2l-0.8,0l0,0.3l-0.5,0L26.2,29z M9.9,30.5l1.5-0.2l0,0.7c-0.3,0.6-0.8,0.9-1.4,0.9l0.1-0.8L9.9,30.5z
	 M42.6,35.2c-0.6,0-1.2,0.3-1.4,0.9l0,0.2l1.8-0.1c0.8,0,1.3,0.1,1.5,0.6l-0.5,0.7l0,0.2c0.1,1,0.9,1.5,2.6,1.7l1.1-0.4
	c-0.1-1.1-0.4-2.1-1-3.1L46,36L42.6,35.2z M13,36.9c-2.1,0.1-3.2,1.5-3.4,4.3l0,0.3l0.6-0.5l0.3,0l0,0.3c-0.4,0-0.8,0.3-0.9,0.7
	c0,0.2,0.3,0.3,1,0.3l0,0.2c0,0.1-0.5,0.4-1.4,0.7l0,0.2c0.8,0,1.5,0.2,2.2,0.5c1.7,1.9,2.7,2.8,2.9,2.8l0.3,0
	c0.5-0.6,1.2-1,1.9-1.2l0,0.3c-0.1,1.3-0.5,2-1.4,2l-0.7-0.1c-1.5-0.2-2.6-1.5-2.5-3l-1.5,0.1c-0.4,0-0.7,0.1-1,0.4
	c-0.2,0.3-0.3,0.6-0.3,1c0.7,0.7,1.2,1.7,1.3,2.7c-0.7,0.5-1.1,1.3-1,2.2l0.1,2.1c0,0.3,0.7,0.5,2.2,0.4l1.3-0.1
	c1.2-0.1,2.3-0.3,3.4-0.7c-0.6,1-1.7,1.5-2.9,1.5l-0.2,0c-1.2,0-2.5-0.2-3.6-0.6l-0.2,0.2l0.2,1.5l0.4,11.3c0.4,3.6,0.9,5.4,1.3,5.4
	l1.3-0.4c0,0.5,0.2,1,0.6,1.4c1.5,0.2,2.3,0.5,2.3,0.9l0,0.5l-0.5,0.5l-2.3-0.4c-0.4,0.1-0.6,0.3-0.6,0.5l0,0.2
	c1.2,2.5,1.9,3.7,2.3,3.7l0.3,0c0.6-0.6,1.4-1,2.2-1.1l0.5,0l6.1,0.5l1-0.2l0.7,0.9l0,0.3l-0.2,0.2l-0.5-0.3
	c-2.8-0.3-4.1-0.6-4.2-0.9l-1.6,0.4l-1,0.1l-1.8-0.2l-0.9,0.9c3.2,3.6,7.8,5.2,13.6,4.9c3-0.3,4.7-0.6,5.2-0.9
	c2.6,0,5.2-0.6,7.6-1.7c5.7-2.9,8.2-10,7.8-21.1l-0.3-5.6c-0.1-1.2-0.5-1.8-1.4-1.7c0.8-0.9,1.2-2.1,1-3.3c-0.1-1.3-0.3-2.6-0.7-3.9
	l-1,0.1l0,0.2l0.5,0.6l0,0.2L46.1,47l-0.3-0.3c0.1-0.4,1-1,2.5-1.8l0-0.2l-0.2-0.2l0.7-2.3l-0.4-0.5l-0.2,0L48.1,42
	c0,0.3-0.1,0.5-0.3,0.5l-0.3,0c-0.5-0.2-0.8-0.6-1-1.1l0-0.3l1.5,0.4c0.2,0,0.4-0.5,0.6-1.3c0-0.4-0.9-0.6-2.5-0.5L42.6,40
	c-0.3,0-0.5,0.1-0.5,0.4l0,0.2c0,0.2,0.5,0.5,1.4,0.9L43,41.9l-2.5-1.4l0.5-0.2l-0.9-0.9l0.3-0.3c0,0.5,0.2,0.8,0.4,0.8l0.5,0
	c0.4,0,1-0.5,1.6-1.6L42.5,38L41,38.1c-1.4,0.3-2.1,0.6-2.1,0.9l0.1,2.1c0,0.2,0.2,0.3,0.7,0.3c1.6,1,2.7,1.5,3.4,1.5l0.2,0
	c0.2,0,0.4-0.3,0.4-1l0.2,0c0,0.4,0.4,0.8,1.1,1.3L41,44.5l-1.7-0.2l-0.2,0.2l0.1,4.4c0.1,1.7,0.5,2.9,1.3,3.5l-0.2,0
	c-0.3,0-0.6,0.1-0.8,0.3c-0.2,0.2-0.3,0.6-0.2,0.9l0.4,1c1,0.9,1.6,1.5,1.6,2.1l0,0.2l-0.2,0.2L40,56.5l-0.2,0l-0.2,0.2l0.4,2.3
	l0,8.7l0.1,2l0.2,1l0,0.2l-0.8-0.3c-0.2,0-0.4,0.8-0.5,2.3c0.1,0.4,0.2,0.8,0.6,1.1c-2.8,0.5-4.2,1.1-4.2,1.7l0,0.2
	c1.6,0.1,3.1,0.3,4.6,0.7l0,0.2c-0.8,0-1.4,0.2-1.6,0.6l-0.8-0.4c-0.8,0.2-1.6,0.5-2.3,0.9l0-0.2c0-0.2,0.4-0.4,1.1-0.7l0-0.2
	c-0.7-0.1-1.3-0.4-1.8-0.7l-0.5,0l0,0.3c0.4,0,0.7,0.2,0.7,0.5l0,0.5l-0.5,0.2l-0.5-0.1l0-0.2L34,77l0-0.7l-0.2-0.2l-1.6,0.2
	c-5.2,0.3-8.7-0.8-10.4-3.2l-1.5-4c-0.6,0.1-1.1,0.5-1.4,0.9l-0.2,0l0-0.3c0.1-0.4,0.6-0.7,1.4-0.7l-0.3-5.4c0-0.7-0.2-1.4-0.4-2.1
	c0.2,0,0.3-0.4,0.3-1.2l0-0.7c-0.1-1-0.7-1.9-1.4-2.5c1.1-0.1,1.6-1.1,1.5-3.2l-0.7-4.6l0.1-1l-0.2-0.2c-0.7,0.1-1.5,0.4-2.1,0.8
	l-0.3-0.3c0-0.7,0.5-1.4,1.7-2.1l1,0.1c0.3-0.9,0.4-1.9,0.3-2.8l-0.1-1.1c-0.9-4.1-3-6.1-6.2-5.9L13,36.9z M40.9,36.4
	c-0.7,0-1.3,0.4-1.6,1.1l0,0.5l0.3,0c0.7,0.1,1.3-0.3,1.6-0.9l0-0.2L40.9,36.4z M41,47.9c0-0.8,0.6-1.3,1.9-1.7
	c0.8,0,1.3,0.1,1.5,0.6c-0.8,0-1.1,0.3-1.1,0.7l0,0.2l-1-0.3c-0.3,0.3-0.7,0.5-1.1,0.6L41,47.9z M45.5,49.2c0.3-0.6,0.9-0.9,1.6-0.9
	l0.8,0.1l0,0.3l-0.2,0.2l-0.3-0.3c-0.3,0.4-0.8,0.6-1.3,0.7l-0.5,0L45.5,49.2z M10.5,58.5l0.3,0c1-0.1,2,0.4,2.4,1.4l-0.1,1l-0.8,0
	C11.4,60.4,10.7,59.6,10.5,58.5z M46.2,60l0.2,0l0.2-0.2l1.6-0.1l0.2,0.2c-0.1,0.3-0.3,0.6-0.6,0.7C46.8,60.6,46.3,60.4,46.2,60
	L46.2,60z M18.8,62.2l0.3,0l0,0.2l-0.3,0L18.8,62.2z M3.9,88.1l-0.2,0.2l0.2,6.6l0,0.2l0.3,0.3L38,93.6c1.2-1.4,2-2.1,2.4-2.1
	c0.6,0.1,0.8,0.3,0.8,0.4l-2.1,1.3l0,0.3l20-1l-0.2-1.6l0.1-5.1c0-0.3-0.1-0.5-0.4-0.5L44.2,86l0.4,1.3l-0.6,0.9l0,0.3l0.7,0
	l1.5,0.4l0,0.5l0.4,1.5l0,0.2c-2,0.2-4,0-5.9-0.5l0-0.3c1.6-0.8,2.4-1.6,2.3-2.3l0-0.2l-2.1,0.1l0-0.3c1.2-0.2,1.8-0.6,1.7-1.2
	l-0.2,0l-0.2-0.2l-29.5,1.5l-0.2,0.2c0,0.5-0.1,0.8-0.3,0.8l-0.2,0.2c0-0.8-0.8-1.1-2.4-1l-5.1,0.4L3.9,88.1z M12,93.5l0.5-0.2
	l1.7,0.4c0,0.2-0.3,0.5-0.8,0.7L12,93.8L12,93.5z M44.2,25.2l-0.3,0.3l0.3,6.6l0.3,0.3l49.2-2.6c0.3,0,0.5-0.8,0.5-2.3L93.9,23
	l-0.3-0.3L44.2,25.2z M70.8,27.6l1.3-0.6c0,0.5,0.5,0.8,1.4,1.1l0,0.2c-1.3,0.1-2,0.4-1.9,0.9l-0.5,0l0.1-1.2L70.8,27.6z M57.2,34.9
	l-1.5,0.4c-2.2,1.4-3.2,4.7-2.9,9.8l0.1,1.6L54.1,60l0.3,12.5c0.5,5.2,1,7.8,1.4,7.8c0.8,1.5,2.8,2.2,6.2,2l1.1-0.1l9.5-0.8l6.7-0.2
	l5.6-0.6c2.4-0.1,3.6-1.2,3.4-3.1l-0.1-1c-0.6-2.3-1.5-3.4-2.6-3.3c-0.3,0.3-0.7,0.5-1.1,0.6l-0.3,0l-1-0.9l-4.2,0.6l-14.6,0.4
	l-1.1-21.6L63,52c-0.5,0-0.8-0.1-0.8-0.3L62,51.6l-0.1-2l-0.4-1l0.5,0l0.2,0.2c0,0.3,0.1,0.5,0.4,0.5l0.3,0l0.2-0.2l-0.2-7.5
	c-0.1-1.7-0.4-3.4-1.1-5c-0.6-1.2-1.8-1.7-3.5-1.6L57.2,34.9z M96.7,83.3l-49.5,2.6L47.1,86c0.2,1.4,0.4,2.2,0.8,2.4
	c-0.4,0.5-0.6,1.1-0.6,1.7l0.1,2.6l0.3,0.3l49.3-2.6l0.3-0.3l-0.3-6.6L96.7,83.3z M102.5,22l-21.8,1.1l-0.2,0.2l0.4,3.9l0,3.1
	l0.2,0.2l0.2-0.2l7.7-0.2l2.6-0.3l0-0.3c-0.7-0.2-1-0.4-1-0.6l0-0.5c1.7,0.3,2.7,0.8,3.2,1.5l1.1-0.2l20-1l20-0.9l0-0.2l0.2-0.2
	l-0.4-6.9l-1.3,0.4l-4.6-0.3l-0.8,0c-0.6,0-1.1,0.2-1.6,0.6l0.6,1.3l0,0.3c-0.6,0-1.3-0.6-2.1-1.9l-11.6,0.4c-1.1,0-2.3,0.4-3.2,1
	c-0.5-0.5-1.3-0.8-2-0.7l-1.1,0.1c-2.4,0.5-3.6,1-3.5,1.5l-0.2,0C102.9,22.4,102.8,22,102.5,22z M90.6,24l1.5,0.3l0,0.2l-0.6,1
	l-0.3,0c-0.2,0-0.4-0.3-0.5-1L90.6,24z M83.2,26.3l1.5-0.4l0.1,1.1l-1.1,0.1l-0.3-0.3L83.2,26.3z M119.5,25.9l1.7-1.4l0.4,0.8
	c-0.4,0.6-1.1,0.9-1.8,0.9L119.5,25.9z M123.6,26.5l2.1-0.8l0.1,1.1l-0.7,0l-1.8-0.2c-0.3,0-0.5,0.4-0.4,1l-0.3,0l-0.2-0.2l0.3-1.2
	l0.8,0.1L123.6,26.5z M100.3,29c0.5-0.8,1-1.2,1.4-1.2l0.7,0.3c0,0.5-0.4,0.8-1.4,0.9L100.3,29z M116.7,31.5l-5.1,0.4l-2.1,0.1
	l-2,0.3l0-0.2l-0.5,0c0.1,1-0.5,1.5-1.6,1.7l-0.4-0.8l-3.2,1.8l-0.2,0l0.1-0.5c0-0.3-0.5-0.7-1.4-1.2l0.3-0.5l0-0.2l-0.2,0.2
	l-6.4,0.2c-1.5,0.1-3,0.4-4.4,0.9c-0.8,0.6-1.2,1.7-1.1,3.3l0,0.7c0.1,0.5,0.2,0.8,0.4,0.8c0.1,1.3,2,2,5.9,2l2.1-0.1
	c3.8-0.2,6,0,6.8,0.5l0.7,16.7c0.2,2.4,0.6,4.7,1.2,7c-0.4,1.1-0.6,2.3-0.6,3.5c0.1,1.3,0.7,2.4,1.6,3.2l-0.7,0
	c-0.7,0-1,0.5-0.9,1.4l0.1,1c0.2,3.1,1.9,5.1,5.2,5.8l0.7,0c1.2-0.2,2.3-0.9,3-2l-0.3-0.3l-0.8,0l-2.1,0.9l-0.2,0l0.6-0.9
	c0-0.2-0.3-0.4-0.8-0.4l0-0.2l0.5,0l3.6,0.1c0.5,0,0.8-0.9,0.7-2.5c-0.1-0.6-0.4-1.2-0.7-1.8c0.3,0,0.5-0.1,0.5-0.4l-0.1-2l-0.2-0.2
	l-1.5,0.4c-0.4,0-0.8-0.2-1-0.6l0-0.2l0.2,0l0.2,0.2l0.2,0l2.1-0.8l-1.5-29.2l0.2,0.2l3.4-0.7c1-0.1,1.6-0.8,1.7-2.4
	c1.3,0.6,2.6,1,4,1.1l0,0.2c-0.8,0-1.3,0.3-1.4,0.7l0,0.2l0.3,0.3l1.1-0.1c2.2-0.2,3.3-0.5,3.2-1l0-0.2l-1,0.1l-1.1,0.2l0-0.2
	l-0.3,0l0-0.3l0.8-0.2l2.5,0.5c1.1-0.9,1.7-2.2,1.8-3.5l0-0.5C128.4,32,124.4,31.1,116.7,31.5L116.7,31.5z M110.6,35.1
	c-0.1-1.1,1-2,3.3-2.8c-0.8,2.7-1.8,4-2.9,4.1l-0.5,0l0-0.2L111,36L110.6,35.1z M105.7,35.5c0-0.2,0.3-0.4,0.8-0.5l1.8,0.4
	c0,0.5-0.4,0.8-1.4,0.9l-0.3,0l0.1-0.8L105.7,35.5z M122,36.3c0.4-0.7,1.1-1.1,1.9-1.2l0.5,0.1c-0.7,0.9-1.3,1.4-1.7,1.4L122,36.3z
	 M98.7,39.3c0.4-1.2,1.1-1.9,2-1.9c0.5,0.2,0.8,0.4,0.9,0.6l0,0.3l-1,0.1c-0.5,0.5-1.1,0.8-1.8,0.9L98.7,39.3z M107.4,40.2
	c0.8,0,1.2,0.3,1.2,0.9l-0.3,0.8l0.2,0.2c1.9,0.2,2.8,0.5,2.8,1l-0.3,0.3c-0.9-0.8-2.1-1.1-3.3-1l0.3-0.5l-0.6-1.6L107.4,40.2z
	 M107.3,44.4l0.2,0l2.9,1.2c0,0.2-0.3,0.5-0.8,0.7l-1.8-0.2l0.1-0.8l0-0.3c0-0.2-0.2-0.3-0.5-0.3L107.3,44.4z M107.7,48.2l2.3,0.7
	l0,0.2l-1.6,0.4l-0.2,0l0-0.2l0.3,0l0-0.3c0-0.3-0.4-0.5-1-0.4l0-0.2L107.7,48.2z M108.5,50.6l0.5,0l2.9,1.2l0,0.7l-0.2,0.2
	l-1.3-0.3l-0.3,0.3c-0.9-0.3-1.5-1-1.6-1.9L108.5,50.6z M107.8,62l0.8,0c0.7,0.8,1.1,1.3,1.4,1.2l-0.5,0.5c-0.7,0-1.4-0.2-2-0.6
	L107.8,62z M110.6,65.3l1.6,0.1l-0.3,0.7l-1.6-0.1L110.6,65.3z M107.1,68.3l0.5-0.5l2.8-0.1l0,0.5c-1.3,0.1-2,0.4-1.9,0.9
	C108.2,68.5,107.7,68.3,107.1,68.3L107.1,68.3z M101.5,82.9l-17.2,1.1c-0.3,0-0.5,0.1-0.5,0.4l0.1,1.3c0,1.1,0.4,2.1,1.1,2.9
	c-0.7,0-1,0.2-1,0.5l0.1,1.8l0.3,0.3l1.5-0.1c6-0.3,10.8-0.7,14.6-1.1l4.4,0.1c0.2-1.1,0.4-1.7,0.6-1.7l0.3,0l0,0.2l-0.3,0.5l0,0.7
	l0.3,0.3l2-0.1c1.1-0.1,1.6-0.5,1.6-1.2c0.7,0.5,1.5,0.8,2.3,0.9c0.6,0,1.1-0.4,1.3-1.1l0.5,0.5l-0.3,0.5l0,0.2l24.6-1.3l0.3-0.3
	l-0.1-1c0-0.7-0.4-1.2-1.1-1.4l0.8-0.9l-0.2-1.6l0.1-1.6c-6.2,0-12.2,0.1-17.9,0.4c-3.8,0.1-7.6,0.6-11.3,1.4
	C106.2,83,103.8,82.8,101.5,82.9L101.5,82.9z M105.8,83.5c1.8,0.6,2.7,1,2.7,1.3l0,0.2l-0.2,0l-1.3-0.4l-0.5,0.5
	c-0.3,0-0.5-0.5-0.7-1.3L105.8,83.5z M100.3,85.9c0-0.4,0.5-0.8,1.6-1.2l0.2,0c-0.2,0.6-0.6,1.1-1.1,1.5l-0.2,0L100.3,85.9z
	 M90.8,86.9l0.2,0l0.2,1.1l0,0.3l-0.5,0c-0.5-0.5-0.9-0.8-1.2-0.8l0-0.2l0.2,0l0.7,0.1C90.7,87.5,90.8,87.3,90.8,86.9L90.8,86.9z
	 M101.2,88.5l0.5-0.5l0.3,0c1.2-0.1,1.8,0.1,1.8,0.4l0,0.2c0,0.2-0.3,0.4-0.8,0.5C101.9,88.9,101.3,88.7,101.2,88.5z M123.6,20.8
	l-0.2,1.7l-0.3,0l-0.2-0.2c-0.2-0.9-0.3-1.3-0.6-1.3l-0.5,0l-0.2,0.2c0,0.9,0.2,1.8,0.5,2.6l1.8-0.6l0.7,0.6l0,0.2l-1.6,0.4l-1-0.1
	l0.2,3.8l10.8-0.4c1.6-0.2,2.5-0.7,2.7-1.5c0.2,0,0.6,0.4,1.1,1.3l1.5-0.2l24.6-1.1c3.5-0.2,7-0.7,10.4-1.4l0.5,0.8l3.1-0.3
	c0.5,0,0.8-0.6,0.7-1.8l-0.1-1.1c-0.9-2.9-2.2-4.3-4-4.2l-1.1,0.1c-0.9,0.2-1.8,0.6-2.6,1.1c0-0.4-0.9-0.6-2.7-0.7l-11.6,0.8
	c-0.9,1.4-1.6,2.1-2,2.1l0.4-2l-8.7,0.5L123.6,20.8z M159,23.3c0.1-0.7,0.2-1,0.4-1c0.6,0.7,1.2,1.1,1.7,1.1l0,0.3l-0.2,0.2
	C160.3,23.9,159.6,23.7,159,23.3L159,23.3z M155,24l1.8,0.6l1.3-0.2l0.4,1l-0.3,0.3l-0.2,0c0-0.7-0.2-1-0.4-1l-1.8,0.4l-0.8,0
	L155,24z M143.6,29.4c-2.1,0.1-4.3,0.3-6.4,0.7c-3.5,0.2-5.3,2.3-5.6,6.2l0.1,1c0.1,0.8,0.4,1.6,0.9,2.3c-0.5,0.5-0.8,1.3-0.7,2
	c0.3,1.7,0.5,2.6,0.8,2.6c0.7-0.4,1.1-0.7,1.1-0.9c0-0.5-0.4-1-1.2-1.6l0-0.5c0.6,0,1.1-0.2,1.6-0.6l0.2,0c0.1,1.1,0.6,1.6,1.6,1.6
	l-1.7,1.4l0,0.2l0.4,0.5l0.5-0.4l0.2,0l0.4,1.1l0,0.2l-3.1-0.5l-0.3,0.8l0.9,10.3l-0.1,1.2c1,0.1,1.5,0.2,1.5,0.4
	c-1,0.3-1.5,0.5-1.4,0.7l0.3,5.1l0.4,2.3c-0.2,0-0.4,0.6-0.4,1.7l0.4,1l0.6-0.2c1,0.2,1.5,0.4,1.5,0.7l0,0.5l-0.5,0.2l-1.5-0.4
	l-0.3,0.3l0,2.5c0.1,0.8,0.3,1.1,0.6,1.1c0.5-0.8,1.2-1.3,2.1-1.6l0.5,0.1l0,0.2l-2.9,1.6c0.1,2,0.8,3.4,2.2,4l1.3-1.1l0.2,0l0,0.5
	c-0.8,0.2-1.1,0.4-1.1,0.7c0,0.3,0.5,0.5,1.3,0.6l1.1-0.4c1-1,2.3-1.7,3.7-1.8c-0.1-0.8,0.2-1.6,0.9-2.2c0-0.3-0.5-0.4-1.5-0.4
	l-1.7-1.7l-0.2,0c0,0.4-0.2,0.6-0.8,0.9l0-0.2l-0.2-0.2c0.7-0.6,1.6-1,2.6-1.3l-0.2-0.6c0.3-1,0.6-1.5,1.1-1.5l0.7,0.1l0.2,0l0-0.8
	l-0.7-8l0.2-2.1c0-0.7,0.9-1,2.7-1.1c1.7,0,3.4,0.4,5,1.2c3.4,2,5.3,3,5.7,3l0,0.5l-0.2,0l-1-0.1l-0.2,0l-0.2,0.2l0,0.3
	c3,3.7,4.6,5.7,4.6,6l2.1-0.8l0.5,0c-1.1,0.6-1.6,1.3-1.5,2.1l0,0.3c0,1.4,1,2.6,2.5,2.8l-0.1,0.7c0,0.7,0.8,1.3,2.2,2l-0.3,0.5
	c0,0.2,0.5,0.4,1.4,0.8l1.1-1.5l0.8,0l0.4,1.1l1.8-0.9c1.8-0.4,2.7-1,2.7-1.8l0-0.2c-0.2-1.2-0.9-2.3-1.8-3.2l0-0.2l0.5,0l0-0.5
	l-0.4-0.5c-1.5-0.2-2.3-0.4-2.3-0.7l0.9-1l0-0.5l-0.2-0.5c-1.3-2.9-4.5-6.4-9.6-10.5c0.2-0.9,0.4-1.3,0.6-1.3l0.3,0l0.5,0.6
	c1-0.1,1.9-1.3,2.8-3.6l1.2,1.4l0.2,0c0.2,0,0.3-0.3,0.4-0.8c3-2.4,4.6-6.1,4.2-9.9l-0.1-1.1c-0.2-3.4-2.1-6.3-5.9-8.7
	C161.8,29.5,155,28.8,143.6,29.4z M157.6,33.1l2.2,0.7c-0.1,0.3-0.3,0.6-0.6,0.7c-0.5-0.4-1.2-0.7-1.8-0.7l0-0.2L157.6,33.1z
	 M159.4,36c2.1-0.5,3.4-1.1,3.9-1.5l1.1,2.6c-0.7,0.2-1.5,0.5-2.1,0.9c0-0.9-1-1.5-2.9-1.8L159.4,36z M141.4,37.6
	c3.7-0.6,5.5-1.2,5.5-1.8l0.2,0l0,0.7c6.5,0.3,10.4,0.9,11.8,1.7c0.1,1,0.8,1.8,2.1,2.4c-0.6,1.2-1,3.5-1.1,6.8l0,0.2l-0.8-0.1
	l-0.2,0l-2.1,1.1l0,0.5l1.3-0.1c0,0.2-0.3,0.5-0.8,0.7l-2.7-0.5l-0.3,0.3l0,0.2l0.5,0.5l0.2,0l-0.1,0.5l0,0.2l1.8-0.1l0.5,0.5l0,0.2
	l-1.5-0.3l-0.5,0l-0.3,0.3l0,0.3c0.1,0.2,0.4,0.4,0.9,0.6c0.6-0.1,1.2-0.4,1.6-0.9l0,0.5c0,0.8,0.6,1.1,1.7,1.1
	c-0.2,0.5-0.7,0.9-1.3,0.9l-2.5,0c-0.2-1.3-0.6-1.9-1.2-1.9c-0.3,0-0.5,0.1-0.5,0.4l0.1,1.6l-0.7,0l0,0.5l0.3,0.3l0.8-0.7l0.3,0
	c0,0.7-0.5,1-1.3,1.1l-0.5,0c-0.4,0-0.8-0.9-1-2.9l0-0.3l0.2,0l0.2,0.2l0.5,0c0.7-0.1,1.4-0.6,1.7-1.2c-0.9-0.9-2.2-1.3-3.5-1.1
	l-8.5,0.6l-0.2,0c-0.2-1.2-0.6-2.4-1.2-3.6c0-0.2,0.3-0.4,0.8-0.5l-0.4-1l0.1-1.8c0-0.4-0.2-0.6-0.5-0.6c0.5-1.4,0.7-2.8,0.6-4.3
	L141.4,37.6z M156.1,36.5l0.5-0.5l0.7,0c0.8,0,1.3,0.1,1.3,0.4l-0.5,0.2L156.1,36.5z M136.1,40.5c0.4-1.3,1.1-2,2-2.1l0.3,0
	c-0.8,0.9-1.3,2-1.3,3.2C136.7,41.5,136.4,41.1,136.1,40.5z M135.3,46.3c0-0.4,0.8-0.9,2.6-1.4l0.3,0c0.1,0.4,0.3,0.8,0.7,1.1
	l-3.3,0.3l-0.2,0l-0.2,0.2L135.3,46.3z M165.7,47.3c0.7-0.9,1.7-1.5,2.9-1.6l0.2,0l0,0.2l-0.2,0.2c-1.5,0.5-2.3,1-2.2,1.6l0,0.2
	l0.2,0.2l-0.2,0L165.7,47.3z M134.8,49.1c0.1-0.5,0.3-0.8,0.6-0.9l1.3,0.1l-1.4,1.6C135.1,49.9,134.9,49.6,134.8,49.1z M137.9,59.6
	l1.3-0.1l0,0.7l0.4,1l-0.2,0l-0.2,0.2c-0.6-0.4-1.1-0.9-1.4-1.6L137.9,59.6z M133.8,65.2l0.3-0.3l0.2,0c0.2,0,0.5,0.3,0.7,0.8
	l-0.3,0.3L133.8,65.2z M137.8,72.4l0.2,0c0.5,0.2,0.8,0.6,0.9,1.1c0,0.5-0.1,0.9-0.4,1l-0.4-0.8l-1.6,0.6l-0.2,0l0-0.7
	C137.3,73.6,137.8,73.2,137.8,72.4z M139.9,74.4c0.2-0.5,0.6-0.7,1.1-0.7l0.3,0l0.3,0.3l0,0.8l-0.2,0L139.9,74.4z M168.8,78.8
	l-20.9,2.1l-1.8-0.1l0,0.3l2,1l-0.3,0.3l-0.5,0l-1-0.9c-0.6,1.2-1.2,1.9-2,1.9l0,0.2l0.7,1.1l-0.9,2.5l0,0.2l12-0.3l6.2-0.3
	l11.5-0.9l0-0.3l-0.3,0l0-0.2l1.3-0.4l0.2,0l-0.3,0.8l0.3,0.3l0.3,0c0.8-0.2,1.5-0.7,2.1-1.3l0.3,0c0,0.8,0.6,1.1,1.7,1.1l0.8,0
	l0.3-0.3l-0.2-4.8l-0.3-0.3c-0.4,0.1-0.8,0.2-1.1,0.6l-0.2,0l-0.3-0.3l0-0.2l0.2-0.2c1.2-0.4,1.8-0.7,1.8-0.9l0-0.7l-0.3-0.3l-0.7,0
	c-0.4,0.5-0.9,0.9-1.6,1.1l-0.2,0l0-0.2l0.2-0.2l0-0.2c0-0.5-2-0.6-5.9-0.5L168.8,78.8z M140.8,80.6c-2.5,0.3-5,0.8-7.3,1.7l0-0.2
	c0-0.2,0.5-0.5,1.6-0.7l0-0.3l-10,0.5l-0.3,0.3l0,0.5l0.6,5.1l-0.1,1l0,0.2l0.2,0.2l0.6-0.2l5.9-0.1c1.1-0.2,1.6-0.6,1.6-1.1l0.2,0
	c0.9,0.7,2,1,3.2,1c1.7-0.2,3.3-0.8,4.7-1.7l0,0.5c0.7,0,1.5-0.3,1.9-0.9l0-0.2l-0.2-0.2l-0.8,0.2l0.1-1.3l0-0.3l-2-0.4l2.5-3.3
	l-0.3-0.3L140.8,80.6z M126.9,83.5c0-0.5,0.3-0.8,1.1-1c1.2,0,1.8,0.2,1.8,0.4l-2.8,0.6L126.9,83.5z M137.6,84.1
	c0-0.2,0.3-0.3,0.8-0.4l0.2,0l-0.4,1.5c0.1,0.5,0.4,0.8,0.9,0.8l0,0.3l-1.1,0.2l-0.2,0l0-0.8c0-0.3-0.4-0.5-1.2-0.4
	c0-0.2,0.4-0.4,1.1-0.7l0.2,0L137.6,84.1z M147.1,84.6l2-0.3c0.5,0,0.9,0.1,1,0.4c-0.6,0.7-1.5,1.1-2.4,1.3l-0.2,0L147.1,84.6z
	 M166.3,18.5l-0.3,0.3l0.4,7l0.2,0.2l28.7-1.8l28.2-1.1l0.3-1.2c-0.2-3.3-0.9-5.4-2.1-6.3L166.3,18.5z M221.3,19.1l1.3,0.1l-0.1,0.5
	l0.2,1.1l0,0.2l-0.3,0c-0.5-0.4-1.1-0.7-1.7-0.7l-0.3,0l-0.2,0.2l0-0.2C221,19.7,221.3,19.3,221.3,19.1z M195.1,27l-1.8,0.3
	c-4.1,1.9-6,4.8-5.8,8.5l0,0.2c1.7,0.2,2.5,0.4,2.5,0.7l-2.6,0.1c-1.4,2.5-3.8,9.4-7.1,20.6c-3.3,8-4.9,12.7-4.8,14.2l0,0.7
	c1.1,2.8,2.9,4.1,5.3,4l0.5,0c1.4-0.1,2.5-1.1,3.4-3.1c1.2-5.5,2.3-8.6,3.3-9.2l5.1-0.3l12.5-0.5l0.8-0.2L207,65
	c2.5,6.3,5,9.4,7.6,9.3c1.9-0.2,3.5-1.2,4.5-2.9c0-0.4-0.6-1-1.7-1.7l0-0.5l0.2,0l1,0.9l0.5-0.4c-0.2-1.8-0.8-3.5-1.7-5
	c-0.2-1.3-0.4-2-0.8-1.9l-0.2,0l-1.3,0.4l0-0.2c0.7-0.7,1.1-1.2,1.1-1.5c-3.1-6-6.6-13.9-10.8-23.7c-2.5-7.4-5.8-11-9.9-10.8
	L195.1,27z M195.2,37.4l0.2,0c0.4,1.3,0.9,1.9,1.6,1.9l-0.1,0.8l0,0.5c0,0.8,0.6,1.5,1.8,2l0.1,1.8l0.4,1.9c2.7,5.9,4.1,9,4.1,9.5
	l-13.6,0.7l0.1-0.8c2-5.5,3-8.9,2.9-10.3l-0.1-1.5l-0.2-0.2c1.1-0.5,1.6-1,1.6-1.7l0-0.2l-0.2-0.2l-0.9,0.9l0.3-1
	C193.9,41.5,194.6,40.1,195.2,37.4L195.2,37.4z M191.2,58.8c0.2-0.8,0.9-1.3,1.7-1.4l0.3,0c-0.6,0.5-0.9,1.1-0.9,1.8
	C191.9,59.2,191.5,59,191.2,58.8L191.2,58.8z M169.4,79.1l-0.3,0.3l0.3,5.2c0,0.7,0.2,1.4,0.6,1.9l1.8-0.4l9.8-0.4
	c1.3,0,2.5-0.4,3.6-1c1,0.4,2.1,0.6,3.2,0.7l1.5-0.1l2.4-0.5l0-0.2c0-0.2-0.2-0.3-0.5-0.3l0-0.5l0.7,0.3l1.8-0.6l0.2,0
	c0.2,0,0.4,0.3,0.5,0.8l-0.2,0.2l-1.2-0.4l-0.3,0.3l0,0.3l0.2,0.2l23.8-0.9c6.3-0.3,9.5-0.7,9.5-1.2l-0.3-6.6l-0.3-0.3L169.4,79.1z
	 M229.5,15.4c-10.5,0.7-15.7,1.3-15.7,1.8l0.3,6.1l0.3,0.3l3.6-0.2c1.2,0,2.5-0.3,3.6-0.8c1.5,0.4,3,0.6,4.5,0.6l12.6-0.8l0.2,0
	c0.3-1.3,0.9-2,1.5-2.1l-0.9-0.8l0-0.2l0.2-0.2l0.3,0.3c0.9-0.1,1.8,0.1,2.6,0.4l-0.4,1.5l0,0.2c0,0.4,1.6,0.6,4.6,0.4l0.8,0
	c2.8-0.1,4.2-0.4,4.2-0.9l0-0.2l-0.6-1.6l0-0.2l0.8,0.1l0.2,0l2.1-0.8l0,0.2l-1.1,1l0,0.2l0.2,0.2l1-0.4l0.2,0l-0.1,0.5
	c0,0.3,0.4,0.7,1.2,1.4l5.7-0.3c0.3-0.1,0.5-0.4,0.4-1l-0.1-2.6l-0.3-0.3l-1.9,0.8l-0.2,0l-0.3-0.3l0-0.3l1.1-0.1
	c0.5,0,0.9-0.2,1-0.5l-2.4-1.5l1.5-0.1c0.6,0,1.1-0.4,1.3-0.9l0-0.2l-0.2-0.2L229.5,15.4z M231.2,16.8c0-0.2,0.3-0.4,0.8-0.5
	l2.5,0.2l0.5,0l0,0.3c-0.8,0.6-1.8,1-2.9,1.1l-0.2,0l0.1-0.5l0-0.2l-0.8,0.2L231.2,16.8z M247.9,18c0-0.2,0.2-0.3,0.6-0.5
	c0.6,0.2,1.2,0.5,1.5,1.1l0,0.3l-0.7,0l-1.5-0.6L247.9,18z M244,18.9l0.9-1l1-0.1l0.2,0.2c-0.2,0.7-0.7,1.2-1.4,1.2l-0.7,0L244,18.9
	z M229.2,19.5l0.5-0.5l0.3,0c0.5,0,0.9,0.1,1,0.4l0,0.5l-0.2,0.2l-1-0.4l-0.3,0l-0.2,0.2l0-0.2L229.2,19.5z M245.5,20.3l0.6-0.7
	l1.1-0.1l1.3,0.3c-0.1,0.5-0.6,0.9-1.1,0.9l-2-0.2L245.5,20.3z M236.4,24.9c-2,0.2-4,0.6-5.8,1.3c-6.4,3-9.5,7-9.2,12l0.1,1.1
	c0,2,0.6,4,1.8,5.7l1-0.4l0.2,0l0,0.3l-0.5,0l0,0.3c0.9,1.2,1.9,2.3,3.1,3.1c1.8,1.2,4.8,2,8.8,2.3l5,1.9c5.6,0.6,8.5,2.7,8.7,6.3
	l-0.1,1.3c-0.6,3.6-3.7,5.6-9.2,5.9c-2.8,0.3-5.6-0.9-7.4-3.1c-2.6-5-4.6-7.5-6.1-7.4l-1.1,0.1c-2,0.1-3.4,1.6-4,4.5
	c0.3,1.2,0.6,1.8,0.9,1.8c0.3,1.5,0.7,2.9,1.4,4.2c3.6,5.1,9.2,7.4,16.6,7c2.7-0.2,5.4-0.8,8-1.9l0-0.2l-0.2-0.2l-0.1-1.5
	c-0.1-1.2-0.6-1.8-1.6-1.7l0-0.2l3.3-0.5l0.7,0c1.6,0,2.5,0.3,2.5,0.7c-1.5,0.1-2.3,0.8-2.2,2.3l0,0.2l0.2,0.2
	c0.5-0.1,1-0.3,1.4-0.7c0-0.2-0.2-0.3-0.5-0.3l0-0.3l0.3,0l1-0.2c3.6-2.4,5.3-5.3,5.1-8.8l-0.4-1.9c0.5,0,0.8-0.2,0.8-0.5l0-0.5
	l-0.7-0.6l0.2-1.8l-0.2-1.3c-1.3-3.4-2.7-5.1-4.4-5l-1,0.1l0-0.2l0.3-0.5l0-0.5c-6.8-2.8-12-4.1-15.6-3.9l-0.2,0l0,0.2l2.4,2.3
	l0,0.2l-0.8,0c-1.9,0-2.8-0.2-2.8-0.7l0.6-0.4l-0.4-1.9c0-0.7-1.4-1.2-4-1.3l-2.8,0.3l-0.2,0l0-0.7l-0.2-0.8
	c0.7-0.1,1.3-0.5,1.7-1.1l0-0.5c0-0.2-0.4-0.4-1.2-0.8c0.6-1.6,1.6-3.1,2.7-4.4l-0.2-1c0.2-0.8,0.7-1.4,1.4-1.9l-0.4-0.5l-0.1-1.1
	L233,29c0.3,0,0.8,0.2,1.4,0.8l0.2,0c0-0.9,0.5-1.7,1.4-1.9l0.7,0.1l0,0.3c-1.7,1.1-2.5,1.9-2.5,2.4l0.3,0.3l0.3,0
	c0.5-0.1,1-0.3,1.3-0.7l0.3,0l0,0.3l-0.2,0.2c-0.3,0-0.5,0.1-0.5,0.4c0.1,0.3,0.4,0.5,1,0.4l1-0.1c0.5,0,0.9-0.3,1.1-0.7l1,0.8
	c3.9,1,5.9,2.2,5.9,3.5l1.9-0.4c0.9,0,1.7,0.3,2.3,0.9l0.2,0l-0.2-0.8c0-0.3,0.1-0.5,0.3-0.5l0.7,0.5l0.2,0l1.5-0.2
	c0.7,0.2,1,0.4,1,0.6l-0.7,0l-1-0.1l-0.2,0l0.2,1.6c0,0.4-0.3,0.7-0.9,0.7l-0.2,0l-0.7-1.3l-0.2,0c-0.2,0-0.7,1-1.5,2.9l0,0.2
	l0.2,0.2l1.6-0.2l-0.3,1l0,0.2l1-0.1c2.6-0.1,4-1.7,4.2-4.8c-0.7-3.6-1.9-5.3-3.6-5.2c-0.2,0-0.3,0.3-0.3,0.8l-1.9,1.7
	c-0.3-0.3-0.7-0.4-1.2-0.4l-1.2,0.1c-0.6,0-1.1,0.2-1.6,0.6l-0.2-0.5c-1.3-0.3-2-0.9-2.1-1.9l-0.8,0.2l-1.5-0.3l0-0.2l6.9-0.7
	l4.3,0.1l0-0.3l-0.9-1.1c-3-2-5.3-3-6.9-2.9l-0.2,0l-0.2,0.2l0.4,0.8l-0.2,0C241.8,25.3,239.1,24.8,236.4,24.9L236.4,24.9z
	 M238.8,26.1l0.3-0.3l0.2,0l1.7,0.4l0,0.3l-0.5,0.2l-1.7-0.3L238.8,26.1z M241.1,27.1l0-0.2c2,0.2,3,0.5,3,0.8l-0.8,0.2l-1.6,0.1
	l-0.5,0.4l0.2,0.8l0,0.2l-0.2,0l-0.2-0.2l-0.2,0l-1,0.4l0-0.3C240.6,28.7,241,27.9,241.1,27.1L241.1,27.1z M227.9,28.6
	c0.9-0.1,1.9,0.1,2.7,0.7l-2.1,1.1l-0.3,0l0-0.2l0.6-0.2l0-0.3c-0.3-0.5-0.7-0.8-1-0.8l0-0.2L227.9,28.6z M237.3,28.4l0.5-0.2
	l1.3,0.1c-0.2,0.6-0.8,1-1.4,1.1l-0.7,0l0-0.2l0.6-0.2l-0.4-0.5L237.3,28.4z M229.7,43.3c0.1-0.3,0.5-0.5,1.3-0.6l0.2,0
	c1.3,0.2,2.5,0.6,3.5,1.3c-1,1-2.3,1.6-3.7,1.7c-1.2,0.2-2.5-0.2-3.5-1l0.5-0.5l4.3,0.4l0.3-0.3l0-0.5l-0.4-0.5
	c-0.7,0-1.4,0.2-2.1,0.4l0-0.2l-0.3,0L229.7,43.3z M240.7,46.5l0.1-0.7c0-0.4,0.7-0.7,2.1-0.9l0.7,0.1l0,0.3l-0.5,0.5l-1.5,0.1
	c-0.3,0-0.4,0.2-0.5,0.7l-0.3,0L240.7,46.5z M238.6,47.1l0.2,0l0.2-0.2l0.3,0l2,0.2l0,0.2c0,0.3-0.4,0.6-1.3,0.7
	C239.3,48.1,238.7,47.7,238.6,47.1L238.6,47.1z M247.9,46.6l1.1-0.1l0,0.2l-0.2,0.2l0,0.2l0.2,0.2c0.5,0,0.8,0.1,0.8,0.3l0.2,0.2
	l0,0.7l-3.1,0.2l-0.1-1l1.1-0.4l0-0.2l-0.2-0.2L247.9,46.6z M236.7,48.7l0-0.2c1.8,0.4,2.7,0.7,2.7,1l0,0.5l-2.5,0.1l-1-0.3
	L236.7,48.7z M244.8,50.2c0.4-0.6,0.9-1,1.6-1.2l-0.1,0.8l0,0.7l-0.5,0L244.8,50.2z M250.7,49.1l0.3-0.3c0.4,0.4,0.9,0.7,1.5,0.7
	l0,0.2l-0.5,0.5l-1,0.1l0-0.8L250.7,49.1z M247.6,49.6l0.3-0.3l1.6,0.1c0.1,0.7-0.3,1.3-0.9,1.5C248.3,50.8,248,50.4,247.6,49.6
	L247.6,49.6z M217.3,76.6L217,77l0,0.5c0.1,1.6,0.3,3.3,0.6,4.9l-0.1,1.5l3.3-0.2c0.9-0.2,1.3-0.5,1.3-0.7c1.2,0.5,2.5,0.8,3.8,0.8
	l8.5-0.8l30.3-1.6L265,81l-0.4-6.7l-0.2-0.2l-7,0.5L217.3,76.6z M249,77.8c0-0.2,0.3-0.5,0.9-0.7l0.3,0l0,0.2
	c-0.4,0-0.6,0.1-0.6,0.4l0,0.2l0.2,0.2l1-0.5l0.3,0c-0.4,0.8-0.7,1.2-1.1,1.2l-0.3,0c0-0.4-0.3-0.6-0.7-0.6L249,77.8z M252.7,14
	l-0.3,0.3l0.1,2.3l0.2,1.5l-0.1,1.2l0.1,1.6c0,0.2,0.2,0.3,0.7,0.5l3.8-0.4l1.3,0.3l0.3-0.3l0-0.3c-0.9-0.1-1.3-0.2-1.3-0.4l2.1-0.1
	l0.3-0.3c0-0.4-0.9-0.7-2.7-1c0-0.2,0.4-0.4,1.1-0.6c1.3,0.1,2,0.6,2,1.4l-0.8,1.2l0,0.2l3.3-0.2l0.2-0.2c-0.5-1-1.2-2-2-2.9
	l-4.3-0.8l-0.2,0c-0.3,1-0.5,1.5-0.7,1.5c0-0.7-0.2-1-0.5-1l-1.8,0.1c0.3-0.4,0.5-1,0.6-1.5l0.3,0l1.2,0.8l0.5-0.4l-1.2-0.8l0-0.2
	l0.2-0.2l1.8,0.2l0.2,0c0.2,0,0.4-0.3,0.6-1c0.7,0.2,1.3,0.5,1.8,0.9c2,2.2,3.5,3.3,4.6,3.2l0.2,0l0.3-0.3l-1.2-1.1l0-0.2l3.8-0.5
	l0.2,0l-0.3,0.3l0.4,1.6l1-0.2l0.2,0c-0.3,0.4-0.6,0.8-0.6,1.3l0,0.3l0.4,0.5l0.2-0.2l4,0.3l0.7,0c0.1-1,0.2-1.5,0.4-1.5l0.2,0
	l0.5,0.3l1.3-0.4l0,0.2l0.2,0.2c0,0.2-0.2,0.3-0.6,0.5l0.3,0.3l1.5-0.1l0.3-0.3l-0.1-1.6l1.2,0.3l0.5,0c0.6-0.6,1.3-1,2.1-1.3l0.8,0
	l0-0.5l-0.7-0.8l0-0.2l1.1-0.2l0.2,0c0.7-0.1,1.4,0.4,1.7,1.1c-1.7,0.1-3.6,1.2-5.9,3.4l0,0.2l0.2,0l0.2-0.2l1.6-0.1l11-0.2l0.2,0
	c2.3-0.1,4.5-0.5,6.7-1.3c0.8,0.7,1.9,1.1,3,1l1.6-0.1l0.3-0.3l-0.3-5.2c0-0.7-0.2-1.4-0.6-1.9l-3.3,0.3l-1,0.1l-14.9,0.5l-0.5,0
	c-3,0.1-6,0.7-8.8,1.8c0-0.6-0.7-1-1.9-1.2l-0.8,0l-1,0.4l-4,2.3c-0.9-1-1.5-1.6-1.7-1.6l-0.3,0.8l-0.5,0l0.3-0.7l-1.4-0.8l-1,0.1
	l-1.3,1.2c0-0.7-1.2-1-3.5-1.1l-3.1,0.3L252.7,14z M260.8,14.4l0.5-0.2l1.8,0.7c0,0.8,0.4,1.1,1,1.1l0,0.2c-0.4,0.1-0.8,0.3-1.1,0.7
	l-0.3,0l0-0.2C261.5,15.7,260.8,14.9,260.8,14.4L260.8,14.4z M270.5,14.4l0.8-0.5l0.3,0l1,0.9l-1.4,0.7l-0.7-0.9L270.5,14.4z
	 M269.9,15.2l1.2,0.3l0,0.2l-0.5,0.2c0,0.2,0.2,0.3,0.5,0.3l0,0.3l-0.7,0c-0.4-0.1-0.7-0.4-0.9-0.8L269.9,15.2z M296.7,15.6
	c-0.1-1,0.5-1.6,1.7-1.9c0.2,0,0.4,0.3,0.5,0.8c0,0.3-0.7,0.6-2.1,1.1L296.7,15.6z M271.8,16.8c0.2-0.6,0.8-1,1.4-1.1l0.3,0
	c-0.4,0.5-0.6,1.2-0.7,1.8l-0.2,0c0-0.4-0.3-0.6-0.9-0.6L271.8,16.8z M266.1,18.9c-0.4,0.1-0.8,0.2-1.1,0.6l1.4,0.8l0.3,0l0.3-0.3
	l0-0.5l-0.5-0.5L266.1,18.9z M288.3,22.6c-1.8,0.1-3.6,0.4-5.4,0.8l0,0.3l0.8,0.4l-0.3,0.3l-0.5,0c-0.8,0-1.5-0.5-1.7-1.2l-0.3,0
	c0,0.4-0.3,0.7-0.9,0.7c-0.9-0.4-1.9-0.6-2.8-0.7c-1.1,0.1-2.3,0.4-3.2,1c-1.9-0.4-3.8-0.6-5.8-0.5l-2.1,0.1
	c-2.8,0.1-4.6,1.3-5.4,3.6c0.1,0.4,0.3,0.6,0.5,0.6l1.5-0.1l0.2-0.2c0.7,0.3,1,0.7,1,0.9l-0.6,0.4l-1.8-0.6l-0.7,0l-0.3,0.3l1.5,1.1
	l0,0.5c-1,0.6-1.5,1.1-1.6,1.4l0.6,9.2l0.2,4.1l-0.1,2l1.2,0.4l0.2,0c1.9-2.5,3.2-3.8,3.9-3.8l0-0.2l-0.9-0.8l0-0.2
	c0.7,0,1-0.2,1-0.4c-0.2-0.4-0.6-0.6-1-0.6l0-0.2l0.2,0c1.3,0.4,2,1.1,2.1,2.2l0,0.5c0,0.6-0.2,1.1-0.6,1.5l-1.8-0.6l-1,0.2
	c-0.5,2.1-1,3.2-1.5,3.2l-0.3,0l-1.2-0.1l0,0.2l-0.2,0.2l0.1,1l0.6,2.4l-0.2,1.8l0,0.2l2.3,0.2c1.5-0.2,3-0.6,4.4-1.2l0-0.2
	l-0.3-0.3c0-0.6,0.3-1.1,0.7-1.5l0.5,0l1.2,0.9l0.6-0.7L271,50l0.3-0.3l3.1-0.2l9.6-0.8l3.5,0.1l0-0.2l-0.2-1c0-0.8,0.6-1.4,2-1.8
	l0.3,0c-0.9,1-1.4,1.8-1.4,2.4l0,0.2l0.3,0.3l1.8-0.1c2.8-0.1,4.2-1.3,4.1-3.5l0-0.2c0-0.7-0.3-1.3-0.7-1.8
	c-1.4-1.5-3.8-2.1-7.2-1.9c-2.6,0.2-5.2,0.8-7.6,1.7l0,0.3c0.8,0,1.7,0.1,2.5,0.4l0,0.2l-0.3,0c-0.3,0.9-0.6,1.3-0.8,1.4l-0.3,0
	l-0.2-0.2l0-0.2l0.2-0.2l0-0.3l-1.9-1.2l0.1-0.5l0-0.2l-1.5,0.4c-1.6-0.4-3.2-0.7-4.8-0.7l-1,0.1l-0.2,0.2c-0.5,1.8-1.1,2.7-1.8,2.7
	l-0.2,0c0.8-1.4,1.2-2.9,1.4-4.5c-0.1-1.2-0.5-2.3-1.2-3.2c0.9,0,1.3-0.6,1.2-1.5l-0.5-3.9c0-0.8,0.9-1.2,2.7-1.3l7.6,0.1l0.3,0
	c1.3,0,2.5-0.5,3.6-1.2l0.2,0c0,0.2,0,0.4-0.1,0.5c-0.1,0.1-0.3,0.2-0.5,0.2l0,0.3l6.6-0.2c3.1-0.2,4.8-1.2,5.1-3.2l0-0.2
	c-1,0.1-1.7-0.8-2.1-2.5l0-0.3l0.3,0l0.8,0.4l0.3-0.3l0-0.2C294,23.1,291.9,22.6,288.3,22.6L288.3,22.6z M262.4,25.8
	c0.5-0.6,1.3-1,2.1-0.9l3,0.5l0,0.2l-0.8,0.2l-4.1,0.1L262.4,25.8z M280.1,24.5l2.2,0.5l0,0.2l-0.3,0.3l-2.2-0.4l0-0.2L280.1,24.5z
	 M275.1,27.3l0.8-0.2l1-0.1c0.3,0,0.5,0.2,0.5,0.8l0.3,0l0-0.3l0.2,0l0,0.2c-0.4,0.6-1.1,1-1.9,1.1c-0.2-0.9-0.5-1.3-0.9-1.3
	L275.1,27.3z M263.6,31l1,0.1l0.2,0l0.2-0.2l0.2,1.5c-1-0.2-1.5-0.5-1.5-0.7L263.6,31z M266.8,47.1c0.6,0,1.8-0.7,3.5-2l0.8,0.4
	c0,0.2-0.4,0.4-1.3,0.6c0,0.5,0.3,0.9,0.7,1.1l1.3-0.1l0,0.3c0,0.2-0.3,0.5-0.8,0.7l-1.8-0.1l-0.2,0l-0.2,0.2l0.4,0.8l0,0.2
	l-1.7-0.2l0,0.2l-0.2,0.2l0,0.8l-1.2-0.4l0-2.5l0-0.2L266.8,47.1z M280.8,45.7l0.5-0.2l2.2,1l0.2,0c0,0.7-0.5,1.3-1.6,1.6l-0.2,0
	l0-0.2l0.3-1.5c-0.2-0.4-0.6-0.6-1.3-0.6L280.8,45.7z M269.1,46.8c-0.8,0-1.6,0.4-2.1,1.1l0,0.3l1.3-0.1c0.5,0,0.9-0.2,1-0.5l0-0.7
	L269.1,46.8z M270.1,53.2c-0.7,1-2.2,1.6-4.5,1.7l-1.6,0.1c-0.7,0.1-1.5,0-2.1-0.2l0,0.2l-0.2,0.2l0,0.8l0.9,0.8
	c-0.5,1.4-0.7,3-0.6,4.5l0.1,2.1c0.1,1.7,0.5,3.4,0.9,5c0.1,1.9,2.8,2.6,8.2,2.4l2.9-0.2c2.3-0.1,4.5-0.5,6.7-1.2
	c3.1,0.4,6.3,0.6,9.4,0.5l2.3-0.1c4.2-0.2,6.1-1.9,6-4.9l-0.2-0.8c-1.2-1.8-3.9-2.6-8.3-2.4l-4.9,0.3l-0.5,0.7l0,0.2l-2.6-0.2
	l-0.7,0c-0.8,0-1.3,0.3-1.4,0.7c-2.2-0.6-4.4-0.7-6.6-0.5c-1.2,0.1-2.3-0.7-2.6-1.8c0.6-0.5,0.9-1.9,0.8-4.3l-0.2-3.3l-0.3-0.3
	L270.1,53.2z M264.9,61.8c-0.1-1.9,0.7-2.8,2.5-2.9c-0.3,1.9-1.1,2.9-2.3,2.9L264.9,61.8z M270.7,65.6l0.5-0.2l1.3,0.3
	c-0.9,1.7-1.5,2.5-1.8,2.6l-0.2-0.2l0.6-0.9l-0.1-1l-0.4-0.5L270.7,65.6z M289,67.1l0.8-0.2l0.7,0l0.1,1.2l0.4,0.5l0,0.2l-0.5,0
	C289.8,68.3,289.4,67.7,289,67.1L289,67.1z M303.4,71.9c-1.8,0.3-3.5,1-5,1.9l-0.2,0c0-0.2,0.3-0.4,1-0.5l0-0.7L287,73
	c-3,0.2-6,0.6-9,1.1l0,0.3l0.5,0l0,0.3l-0.5,0.2c-0.4-0.2-0.9-0.3-1.3-0.3l0-0.2l0.3-0.5l0-0.3l-0.2-0.2l-1.5,0.2l-2.1-0.1
	c-1.9,0.1-3.1,0.5-3.9,1.4l-0.2,0l-1.4-1.1l-0.3,0c0.1,1-1,1.5-3,1.6l-0.3,0c-0.2,0-0.4-0.4-0.7-1.1l0.2,0l-0.3-0.3l-7.4,0.4
	l-0.3,0.3l0.2,4.6c0,0.2,0.4,0.4,1.2,0.6c1.4-0.6,2.9-1,4.4-1.2l0.5,0c1.4-0.2,2.8,0.3,3.8,1.3c-1.5-0.3-3-0.4-4.5-0.4l-0.8,0
	c-1.5,0.1-3,0.6-4.4,1.4l0,0.3l8.1,0.1l20.8-1.3l0.2,0c0.5-0.9,1.5-1.5,2.5-1.6l0.2,0l0,0.3c-1.2,0.3-1.8,0.6-1.8,0.9l0,0.2l0.2,0.2
	l0.2,0l0.2-0.2l1.3-0.1l2.6,0.2l0.3,0c0.5,0,1-0.4,1.1-0.9l-0.4-0.6l0-0.2c0.5-0.1,1.1-1,1.8-2.6c0.7,0.2,1.1,0.5,1.2,0.8l0,0.2
	l-1,0.2l0,0.3l0.8,0.1l5.2-0.3l1.6-0.2c0,0.9,0.6,1.3,1.5,1.2l0,0.5l-0.5,0.2c-0.5,0-1.2-0.4-2-1.4l-0.2,0l-0.2,0.2l-0.5,0.7l-0.5,0
	l-1-0.8c-0.2,0-0.3,0.3-0.3,0.8l-1.3,0.1l-0.6,0.5c0,0.6,3.3,0.7,9.9,0.5l0.3-0.5l0-0.5l-0.7-4.1l0.3-1.3
	C305.1,72.4,304.3,71.9,303.4,71.9L303.4,71.9z M267.1,75.6l1.5-0.4l0.2,0l0.2,0.2l-0.8,0.7l0.6,1.4l0,0.2c-1.2-0.7-1.9-1.4-1.9-2
	L267.1,75.6z M283.6,76.9c0-0.3,0.3-0.5,1-0.5c0.1-0.7,0.2-1,0.4-1l0.3,0c1.1,0,1.7,0.3,1.7,0.9l0,0.2l-1.6,0.1l-1.8,0.6L283.6,76.9
	z M270.6,79.4c0-0.4,0.6-0.7,1.8-0.9l0.3,0l0.5,0.5l0,0.3L270.6,79.4z M273.7,79.6c0.1-0.4,0.5-0.8,0.9-0.7l1.3-0.1l0,0.2
	c-0.1,0.3-0.4,0.5-1,0.5L273.7,79.6z M290.1,79.2l0.5-0.2l0.3,0l-0.5,0.5L290.1,79.2z M294.6,11.6c-2.2,0.4-3.2,0.7-3.2,1.2l0.3,0.3
	l0.2,0c0-0.3,0.1-0.5,0.3-0.5l1.1-0.1L293,13l0,0.2l0.7,0.8l-1.3-0.3l-0.3,0.3c0,0.4-0.1,0.7-0.5,0.7l0,2.5c0.1,1.2,2,1.7,5.8,1.5
	l1.5-0.1c1.2,0,2.3-0.4,3.1-1.3l-0.3-0.3l-0.3,0l-3.1,0.7l-0.9-1.9c0.1-0.3,0.3-0.6,0.6-0.7c1.1,0.6,2.3,1,3.5,1l1.9-0.6l0-0.3
	l-1.8,0.1l-0.3-0.3l0-0.3l1.2,0.1l1-0.1l0.2-0.2l1.6,1.7l0,0.3l-1.2-0.8l-0.2,0l-0.2,0.2l0.2,0.5l-0.3,1.3c0.3,0.6,0.5,1,0.7,0.9
	l33.3-1.7c0.5-0.9,1.4-1.5,2.4-1.8l0.2,0l-0.1,0.5l0.5,0.5l-0.3,0.5l0,0.2l8.5-0.4l0.3-0.3l-0.4-6.7l-0.2-0.2l-2.6,0.3l-4.6,0.1
	l-2.5,0.1l-8.9,0.3l-4.4,0.4c-0.2,0-0.3,0.3-0.3,0.8l-1.4,2.4l-1,0.1c-0.5,0.1-1,0.3-1.4,0.7l-0.3,0l0.3-0.7L321,13l0-0.3l0.2,0
	l0.2,0.2l1.5-0.1c0.6-0.3,0.9-0.6,0.9-1l0-0.2l-0.2-0.2l-1.9,0.6l-0.2,0l-0.5-0.6c1.7-0.2,2.6-0.5,2.6-0.8l0-0.2l-8.5,0.3l-3.6,0.2
	c-2.9,0-5.8,0.5-8.6,1.4c0-0.3-0.5-0.6-1.5-0.7l-1.1,0.1l-1.3,0.6c0-0.2-0.4-0.4-1.2-0.4l-0.2,0l-0.2,0.2l0.4,1l0,0.2l-0.8,0
	C296,12.8,295.3,12.3,294.6,11.6L294.6,11.6z M303.9,12.5l1.1-0.1l0.1,1.8c-0.8,0-1.2-0.5-1.2-1.6L303.9,12.5z M317.8,12.1l1.8-0.1
	c0,0.8,0.3,1.1,0.9,1.1c0,0.4-0.7,0.7-2.1,0.9C318.2,14,318,13.4,317.8,12.1L317.8,12.1z M307.9,14.5c0-0.4,0.6-0.7,1.8-0.9l0.2,0
	l0,0.5l-0.3,0.5l-0.7-0.1l-0.8,0.2L307.9,14.5z M329.3,12.6l1-0.1l-0.3,1.2c0,0.3,0.4,0.5,1,0.4c0,0.3-0.5,0.5-1.6,0.7
	c-0.5,0.1-1-0.2-1.2-0.6l0-0.3l0.5,0.3l0.2,0l0.5-0.5L329.3,12.6z M299.2,14.8l1.3-0.6l0.2,0l0,0.3c-0.2,0-0.4,0.1-0.5,0.2
	c-0.1,0.1-0.2,0.3-0.1,0.5l-0.5,0l-0.3-0.3L299.2,14.8z M308.4,15.2l0.5,0l0.9,0.8l0.2,0l0.2-0.2l0.2,0.5l-0.5,0.4l-0.2,0l-1.2-0.1
	L308.4,15.2z M293.6,16.9l2.4,1l0,0.2l-0.3,0c-1.3-0.3-2-0.6-2-1L293.6,16.9z M305.1,17.3l1.1-0.4l2.5-0.1c0,0.3-0.6,0.5-1.8,0.6
	l-1.6,0.1l-0.2,0.2L305.1,17.3z M320.9,20.4c-3.7,0.1-7.2,1.3-10.2,3.5c-1,1.1-1.7,1.7-2.4,1.8c-2,1-3.7,3.2-5.1,6.7
	c-1.9,6.4-2.7,11.1-2.5,14.1c0.1,1.2,0.4,1.8,0.9,1.8l0.1,1c0.2,3.2,1.1,6.3,2.6,9.1c3,5.2,6.1,7.7,9.3,7.6l0,0.3l-1-0.3l-0.3,0.3
	l0,0.3c3.4,1.4,7.1,2.1,10.8,2.1l2.1-0.1c1.2,0,2.4-0.5,3.2-1.3l1.5,0.3l1-0.1c1.7-0.4,3.1-1.3,4.1-2.7l0-0.3l-0.2,0l-0.8,0.2l0-0.3
	l0.8-0.2l1.5-0.1l0.5-0.5l0-0.3l-2,0.3l-0.2,0c0-0.4-0.2-0.8-0.6-1.1l1.1-0.1l3-1.6l0-0.3l-2.3-0.5l0-0.2l0.3-0.3l0.3,0l1.4,0.8
	l0.6-0.4c0-0.7-0.5-1-1.4-1.1l-0.3,0l-2.3,0.4c-1.1-0.1-1.7-0.5-1.7-1.2l2.8-0.1l0-0.5l-0.2-0.2l1,0.1c2,1.3,3.2,2,3.6,1.9l0,0.2
	c-0.9,0.2-1.3,0.3-1.3,0.6l0,0.2c0,0.2,0.5,0.4,1.3,0.6l0.2,0c1.8-3.3,2.6-6,2.5-8.2l0-0.2c0-2.1-1.5-4-3.7-4.2l0,0.3
	c-0.6,1.3-1.1,2.6-1.4,4l0,0.5l-0.8,0c-0.6,0.1-1.2,0.5-1.6,1.1l-1-0.1l-2.3,3.1l0,0.8l-0.6,0.2l0.2,1.1l-0.3,0.3
	c0-0.4-0.2-0.8-0.6-1.1l-0.5,0.5c-1,0.5-1.6,0.8-1.6,1.1l0,0.3c3.2,0.3,4.8,0.7,4.8,1.1l0,0.2l-0.2,0l-3.7,1.3l-1.8-0.4l0-0.2l0.2,0
	l0.8,0.3l0.3-0.3c0-0.5,0.4-0.9,1.4-1.2c0-0.4-1.3-0.5-4-0.4c-1.6,0-3.1,0.5-4.4,1.4l-0.3-0.3l-1.5,0.1l-0.3-0.3
	c0.9,0,1.3-0.2,1.3-0.4l0-0.2l-1.3-0.1l-1.3,0.6l-0.5-1c-2.3-1.3-3.6-2.3-3.8-3.1l-0.8,0.2l-0.3,0c-0.7,0.1-1.3-0.3-1.5-0.9
	c0.5,0,0.9-0.3,1.1-0.7l0-0.5l-1.6-2.9l0.1-1.2l-0.7,0c-0.5,0.5-1.1,0.9-1.7,1.1l-0.2,0l0-0.2l0.3-1l1.8-0.1l0.2-0.2l-0.4-0.8
	l0.3-0.8l0-0.2l-0.2-0.2c-0.5,0-0.8-0.1-0.8-0.3c0.7,0,1-0.2,1-0.5l0-0.3c-0.1-1-0.4-1.9-0.8-2.8c-1.1-0.2-1.7-0.5-1.7-0.7l0-0.2
	l0.2,0l0.2,0.2l0.5,0c0.3-0.4,0.7-0.6,1.1-0.6l-0.1-1.3c0-0.9,0.1-1.9,0.3-2.8c1.6-4.1,2.4-6.8,2.4-7.8l0-0.2l0.8,0
	c0.6,0,1.5-0.7,2.5-1.9c1.3-0.1,1.9-0.9,1.8-2.4l-0.4-1.1l0.2,0l0.2-0.2l0.3,0l0,0.2l-0.2,0.2l0,0.2c0.6,1.3,1,1.9,1.2,1.9l0.5,0
	l0.3-0.3l-0.6-1.6l0.3-0.3l0.5,0l0.5,0.5l0,0.2l-0.1,1.2l0.2,0l0.2,0.2l0.5,0c0.4-0.5,0.9-0.8,1.4-0.9l0,0.8l0.3,0.3l0.8,0
	c1.2,0,2.4,0.3,3.5,1c1,1.1,2.4,1.6,3.9,1.4l0,0.2l-0.2,0.2l0,0.8c0.1,1.3,0.9,2.4,2.6,3.5l-0.1,0.8l0,0.7c0.5,0.7,1.3,1.1,2.2,1
	l1.3-0.1c3-0.6,4.5-1.7,4.4-3.2l0-0.7c0-0.5-0.7-1.5-2-2.9l0.4-1.7l-1.7-0.6l0.5-0.7l0-0.2c-0.1-1-1.1-2-3.3-3.1
	c-0.1,1.1-0.3,1.7-0.6,1.7l-0.5,0l0-0.2l0.5-2.3c-3.8-2.6-8.4-3.8-13-3.4L320.9,20.4z M318.8,24.2l1.2,0.3c0,0.3-0.4,0.7-1.1,1
	L318.8,24.2z M306.5,31.2l0.8-0.2l0.2,0l1.2,0.8l0.8,0l0.2-0.2c0,0.4-0.5,0.7-1.6,1.1c-1,0.1-1.5-0.4-1.5-1.2L306.5,31.2z
	 M336.5,29.8l1-0.4l0.2,0l0.2,0.2c0.4,1.1,0.9,1.6,1.6,1.6l-0.6,0.5l-1-0.1l-0.7,0l-0.6-1.6L336.5,29.8z M332.3,31.3l1.1-0.4
	c0.8,0.2,1.2,0.4,1.2,0.6l0,0.7c-0.8,0.1-1.1,0.4-1.1,0.7l-0.2,0l-0.2-0.2l0.1-0.5l0-0.2l-0.9-0.6L332.3,31.3z M337.4,32.5
	c0.3,0.3,0.7,0.4,1.2,0.4l0.3,0l1.6-0.6l0.1,1.1l-1.6,0.2c-0.6,0-1.2-0.2-1.7-0.6L337.4,32.5z M302.8,36.8c0-0.7,0.5-1.2,1.7-1.6
	l0,0.2l0.3,0l0,0.8l1.5,1.2c0,0.4,0.6,0.6,1.8,0.6l0,0.2c-1.3,0.5-1.9,1.3-1.9,2.2l-3.1,0.2l0-0.2l0.8-1.4l-0.4-0.6l0-0.2
	c1-0.3,1.4-0.6,1.4-0.9l0-0.2l-0.3-0.3c-0.5,0.1-1,0.3-1.3,0.7l-0.3,0L302.8,36.8z M307.2,41.2c0-0.7,0.4-1.2,1.2-1.5l0,0.2l0.3,0
	l0,0.2c-0.5,0.3-0.8,0.9-0.7,1.5l-0.8-0.1L307.2,41.2z M304.3,42l0.3,0c0.8,0.1,1.6,0.5,2.2,1l-0.5,0.2c-0.2-0.4-0.7-0.7-1.2-0.6
	l-0.3,0l-0.2,0.2L304.3,42z M303.3,45.7c0-0.4,1.2-0.8,3.7-1.2l-0.3,1.3l-0.8-0.3l-3.3,0.5c-0.3,0-0.5-0.1-0.5-0.3l0-0.2l0.3,0
	L303.3,45.7z M302.3,47.9c0-0.2,0.1-0.3,0.5-0.4l0.2-0.2c1.3-0.1,2.1-0.2,2.3-0.4l0,0.3c-0.6,0.4-1.2,0.6-1.9,0.8l-0.2,0L302.3,47.9
	z M303.8,51.7l0.6-0.5c1.9-0.1,3.5,0.9,4.6,2.9l-0.2,0c-0.7-0.1-1.3-0.4-1.8-0.9c-0.6,0.8-1.4,1.3-2.4,1.4l-0.9-0.8l0-0.2l1,0.4
	l0.2,0l0.3-0.3l0-0.3C304.3,52.8,303.8,52.2,303.8,51.7L303.8,51.7z M335.1,50.4l-0.5,0.5l0,0.2l0.5,0.5l0.2,0l1.5-0.4l0-0.2l-1-0.6
	L335.1,50.4z M303.4,54.5l0.7,0.1c0,0.2-0.3,0.4-0.8,0.5l0-0.5L303.4,54.5z M305.8,55.2l0.3,0l1,0.4l0,0.2L307,56l0,0.5
	c0,0.3,0.8,0.4,2.5,0.4l0,0.2c-1.3,0.3-2.6,0.8-3.7,1.5l-0.2,0l0.3-0.5l-0.9-0.8l0-0.3c0.7,0,1-0.2,1-0.4l0-0.2L305.8,55.2z
	 M313.9,59.6c0.4,0,0.8,0.7,1.3,2.2l2.3-0.3l1.2,0.1l0,0.2l-1.1,0.4l-3.8-0.3l-0.2,0l0-0.2L313.9,59.6z M322.5,63.1l0.5,0
	c0.7,0.7,1.6,1.1,2.5,1.2c-0.6,1.2-1.2,1.9-1.7,1.9c-0.2-1-0.6-2-1.3-2.7L322.5,63.1z M327.8,65.1c0-0.8,0.5-1.3,1.7-1.6l0.2,0
	c0,0.8-0.5,1.4-1.6,1.7l-0.2,0L327.8,65.1z M326.1,65.8l1.6,0.1l0.6-0.2l0.2,0c-0.1,0.3-0.3,0.6-0.6,0.7l-1.8-0.1l-0.2,0l0-0.3
	L326.1,65.8z M327.9,70.7l-0.6,0.2c-11.5,0.8-17.2,1.4-17.2,1.9c-0.9-0.6-2.1-0.9-3.2-0.8l-7.8,1.4c-1.4-0.1-2.8-0.3-4.1-0.8l0,0.3
	l0.2,0.2c-0.5,1.8-0.7,3.6-0.7,5.5l0,0.5c0,0.5,0.3,0.9,0.7,1.1L298,80l36.2-2.4l4.1,0.1l0.3,0l0.5-0.5l1.3,0.4l0.8,0
	c0.4-0.2,0.6-0.5,0.6-0.9c0.6,0.6,1.5,0.9,2.3,0.9l1.3-0.1l5.5-0.8l0.5,0c0.4,0,0.5-0.7,0.5-2.2c-0.1-1.2-0.3-1.8-0.6-1.8l0.4-1.3
	l-0.2-1.5l-0.3,0l-2.3-0.2c-0.4,0.1-0.6,0.3-0.6,0.5l0,0.5l0.2,0.2l1.3-0.4l0.2,0l-0.4,1.2l0.7,0.9l0,0.2l-0.2-0.2
	c-2-0.2-3-0.4-3-0.7l0-0.2l0.2-0.2l1.2,0.1l0.5,0l0.2-0.2c0-0.2-0.5-0.4-1.3-0.6l0.1-1l0-0.2l-0.2-0.2c-1.1,0.1-1.6,0.6-1.6,1.6
	c-1.3-0.8-2.8-1.2-4.3-1.1l-0.5,0c-0.8,0-1.5,0.4-1.9,1.1c-1-0.7-2.1-1-3.3-1l-0.2,0l-5.6,0.6L327.9,70.7z M316.6,74.4
	c0-0.7,0.4-1.3,1.4-1.6l0.4,1c-0.3,0.3-0.7,0.5-1.1,0.6L316.6,74.4z M334.7,73.9l1.5,0.4l0,0.2c-0.4,0.8-1.2,1.4-2.1,1.4l0-0.3
	l0.8-1l-0.3-0.3l0-0.2L334.7,73.9z M345,75.5c0.1-0.6,0.2-0.8,0.4-0.8l0.7,0c0.3,0.1,0.6,0.4,0.9,1.1l-0.3,0.3l-0.3,0
	C345.8,76.1,345.3,75.9,345,75.5z M319.9,76.5l0-0.2l2.6,0.4l0.3,0c0.5,0,1-0.2,1.4-0.6l0,0.7c-1.8,0.3-2.8,0.6-2.7,1
	C320.9,77.8,320.3,77.4,319.9,76.5L319.9,76.5z M336.3,9.6l-0.2,1.7l-0.3,0l-0.2-0.2c-0.2-0.9-0.3-1.3-0.6-1.3l-0.5,0l-0.2,0.2
	c0,0.9,0.2,1.8,0.5,2.6l1.8-0.6l0.7,0.6l0,0.2l-1.6,0.4l-1-0.1l0.2,3.8l10.8-0.4c1.6-0.2,2.5-0.7,2.7-1.5c0.2,0,0.6,0.4,1.1,1.3
	l1.5-0.2l24.6-1.1c3.5-0.2,7-0.7,10.4-1.4l0.5,0.8l3.1-0.3c0.5,0,0.8-0.6,0.7-1.8l-0.1-1.1c-0.9-2.9-2.2-4.3-4-4.2l-1.1,0.1
	c-0.9,0.2-1.8,0.6-2.6,1.1c0-0.4-0.9-0.6-2.7-0.7l-11.6,0.8c-0.9,1.4-1.6,2.1-2,2.1l0.4-2l-8.7,0.5L336.3,9.6z M371.7,12.2
	c0.1-0.7,0.2-1,0.4-1c0.6,0.7,1.2,1.1,1.7,1.1l0,0.3l-0.2,0.2C373,12.7,372.3,12.5,371.7,12.2L371.7,12.2z M367.7,12.9l1.8,0.6
	l1.3-0.2l0.4,1l-0.3,0.3l-0.2,0c0-0.7-0.2-1-0.4-1l-1.8,0.4l-0.8,0L367.7,12.9z M356.3,18.2c-2.1,0.1-4.3,0.3-6.4,0.7
	c-3.5,0.2-5.3,2.3-5.6,6.2l0.1,1c0.1,0.8,0.4,1.6,0.9,2.3c-0.5,0.5-0.8,1.3-0.7,2c0.3,1.7,0.5,2.6,0.8,2.6c0.7-0.4,1.1-0.7,1.1-0.9
	c0-0.5-0.4-1-1.2-1.6l0-0.5c0.6,0,1.1-0.2,1.6-0.6l0.2,0c0.1,1.1,0.6,1.6,1.6,1.6l-1.7,1.4l0,0.2l0.4,0.5l0.5-0.4l0.2,0l0.4,1.1
	l0,0.2l-3.1-0.5l-0.3,0.8l0.9,10.3l-0.1,1.2c1,0.1,1.5,0.2,1.5,0.4c-1,0.3-1.5,0.5-1.4,0.7l0.3,5.1l0.4,2.3c-0.2,0-0.4,0.6-0.4,1.7
	l0.4,1l0.6-0.2c1,0.2,1.5,0.4,1.5,0.7l0,0.5l-0.5,0.2l-1.5-0.4l-0.3,0.3l0,2.5c0.1,0.8,0.3,1.1,0.6,1.1c0.5-0.8,1.2-1.3,2.1-1.6
	l0.5,0.1l0,0.2l-2.9,1.6c0.1,2,0.8,3.4,2.2,4l1.3-1.1l0.2,0l0,0.5c-0.8,0.2-1.1,0.4-1.1,0.7c0,0.3,0.5,0.5,1.3,0.6l1.1-0.4
	c1-1,2.3-1.7,3.7-1.8c-0.1-0.8,0.2-1.6,0.9-2.2c0-0.3-0.5-0.4-1.5-0.4l-1.7-1.7l-0.2,0c0,0.4-0.2,0.6-0.8,0.9l0-0.2l-0.2-0.2
	c0.7-0.6,1.6-1,2.6-1.3l-0.2-0.6c0.3-1,0.6-1.5,1.1-1.5l0.7,0.1l0.2,0l0-0.8l-0.7-8l0.2-2.1c0-0.7,0.9-1,2.7-1.1
	c1.7,0,3.4,0.4,5,1.2c3.4,2,5.3,3,5.7,3l0,0.5l-0.2,0l-1-0.1l-0.2,0l-0.2,0.2l0,0.3c3,3.7,4.6,5.7,4.6,6l2.1-0.8l0.5,0
	c-1.1,0.6-1.6,1.3-1.5,2.1l0,0.3c0,1.4,1,2.6,2.5,2.8l-0.1,0.7c0,0.7,0.8,1.3,2.2,2l-0.3,0.5c0,0.2,0.5,0.4,1.4,0.8l1.1-1.5l0.8,0
	l0.4,1.1l1.8-0.9c1.8-0.4,2.7-1,2.7-1.8l0-0.2c-0.2-1.2-0.9-2.3-1.8-3.2l0-0.2l0.5,0l0-0.5l-0.4-0.5c-1.5-0.2-2.3-0.4-2.3-0.7l0.9-1
	l0-0.5l-0.2-0.5c-1.3-2.9-4.5-6.4-9.6-10.5c0.2-0.9,0.4-1.3,0.6-1.3l0.3,0l0.5,0.6c1-0.1,1.9-1.3,2.8-3.6l1.2,1.4l0.2,0
	c0.2,0,0.3-0.3,0.4-0.8c3-2.4,4.6-6.1,4.2-9.9l-0.1-1.2c-0.2-3.4-2.1-6.3-5.9-8.7C374.5,18.3,367.7,17.6,356.3,18.2z M370.3,22
	l2.2,0.7c-0.1,0.3-0.3,0.6-0.6,0.7c-0.5-0.4-1.2-0.7-1.8-0.7l0-0.2L370.3,22z M372.1,24.8c2.1-0.5,3.4-1.1,3.9-1.5l1.1,2.6
	c-0.7,0.2-1.5,0.5-2.1,0.9c0-0.9-1-1.5-2.9-1.8L372.1,24.8z M354.1,26.4c3.7-0.6,5.5-1.2,5.5-1.8l0.2,0l0,0.7
	c6.5,0.3,10.4,0.9,11.8,1.7c0.1,1,0.8,1.8,2.1,2.4c-0.6,1.2-1,3.5-1.1,6.8l0,0.2l-0.8-0.1l-0.2,0l-2.1,1.1l0,0.5l1.3-0.1
	c0,0.2-0.3,0.5-0.8,0.7l-2.7-0.5l-0.3,0.3l0,0.2l0.5,0.5l0.2,0l-0.1,0.5l0,0.2l1.8-0.1l0.5,0.5l0,0.2l-1.5-0.3l-0.5,0l-0.3,0.3
	l0,0.3c0.1,0.2,0.4,0.4,0.9,0.6c0.6-0.1,1.2-0.4,1.6-0.9l0,0.5c0,0.8,0.6,1.1,1.7,1.1c-0.2,0.5-0.7,0.9-1.3,0.9l-2.5,0
	c-0.2-1.3-0.6-1.9-1.2-1.9c-0.3,0-0.5,0.1-0.5,0.4l0.1,1.6l-0.7,0l0,0.5l0.3,0.3l0.8-0.7l0.3,0c0,0.7-0.5,1-1.3,1.1l-0.5,0
	c-0.4,0-0.8-0.9-1-2.9l0-0.3l0.2,0l0.2,0.2l0.5,0c0.7-0.1,1.4-0.6,1.7-1.2c-0.9-0.9-2.2-1.3-3.5-1.1l-8.5,0.6l-0.2,0
	c-0.2-1.2-0.6-2.4-1.2-3.6c0-0.2,0.3-0.4,0.8-0.5l-0.4-1l0.1-1.8c0-0.4-0.2-0.6-0.5-0.6c0.5-1.4,0.7-2.8,0.6-4.3L354.1,26.4z
	 M368.8,25.3l0.5-0.5l0.7,0c0.8,0,1.3,0.1,1.3,0.4l-0.5,0.2L368.8,25.3z M348.8,29.3c0.4-1.3,1.1-2,2-2.1l0.3,0
	c-0.8,0.9-1.3,2-1.3,3.2C349.4,30.3,349.1,30,348.8,29.3z M348,35.1c0-0.4,0.8-0.9,2.6-1.4l0.3,0c0.1,0.4,0.3,0.8,0.7,1.1l-3.3,0.3
	l-0.2,0l-0.2,0.2L348,35.1z M378.4,36.1c0.7-0.9,1.7-1.5,2.9-1.6l0.2,0l0,0.2l-0.2,0.2c-1.5,0.5-2.3,1-2.2,1.6l0,0.2l0.2,0.2l-0.2,0
	L378.4,36.1z M347.5,37.9c0.1-0.5,0.3-0.8,0.6-0.9l1.3,0.1l-1.4,1.6C347.8,38.7,347.6,38.5,347.5,37.9L347.5,37.9z M350.6,48.4
	l1.3-0.1l0,0.7l0.4,1l-0.2,0l-0.2,0.2c-0.6-0.4-1.1-0.9-1.4-1.6L350.6,48.4z M346.5,54.1l0.3-0.3l0.2,0c0.2,0,0.5,0.3,0.7,0.8
	l-0.3,0.3L346.5,54.1z M350.5,61.3l0.2,0c0.5,0.2,0.8,0.6,0.9,1.1c0,0.5-0.1,0.9-0.4,1l-0.4-0.8l-1.6,0.6l-0.2,0l0-0.7
	C350,62.4,350.5,62,350.5,61.3L350.5,61.3z M352.6,63.3c0.2-0.5,0.6-0.7,1.1-0.7l0.3,0l0.3,0.3l0,0.8l-0.2,0L352.6,63.3z
	 M381.5,67.7l-20.9,2.1l-1.8-0.1l0,0.3l2,1l-0.3,0.3l-0.5,0l-1-0.9c-0.6,1.2-1.2,1.9-2,1.9l0,0.2l0.7,1.1l-0.9,2.5l0,0.2l12-0.3
	l6.2-0.3l11.5-0.9l0-0.3l-0.3,0l0-0.2l1.3-0.4l0.2,0l-0.3,0.8l0.3,0.3l0.3,0c0.8-0.2,1.5-0.7,2.1-1.3l0.3,0c0,0.8,0.6,1.1,1.7,1.1
	l0.8,0l0.3-0.3l-0.2-4.8l-0.3-0.3c-0.4,0.1-0.8,0.2-1.1,0.6l-0.2,0l-0.3-0.3l0-0.2l0.2-0.2c1.2-0.4,1.8-0.7,1.8-0.9l0-0.7l-0.3-0.3
	l-0.7,0c-0.4,0.5-0.9,0.9-1.6,1.1l-0.2,0l0-0.2l0.2-0.2l0-0.2c0-0.5-2-0.6-5.9-0.5L381.5,67.7z M353.5,69.5c-2.5,0.3-5,0.8-7.3,1.7
	l0-0.2c0-0.2,0.5-0.5,1.6-0.7l0-0.3l-10,0.5l-0.3,0.3l0,0.5l0.6,5.1l-0.1,1l0,0.2l0.2,0.2l0.6-0.2l5.9-0.1c1.1-0.2,1.6-0.6,1.6-1.1
	l0.2,0c0.9,0.7,2,1,3.2,1c1.7-0.2,3.3-0.8,4.7-1.7l0,0.5c0.7,0,1.5-0.3,1.9-0.9l0-0.2l-0.2-0.2l-0.8,0.2l0.1-1.3l0-0.3l-2-0.4
	l2.5-3.3l-0.3-0.3L353.5,69.5z M339.6,72.4c0-0.5,0.3-0.8,1.1-1c1.2,0,1.8,0.2,1.8,0.4l-2.8,0.6L339.6,72.4z M350.3,72.9
	c0-0.2,0.3-0.3,0.8-0.4l0.2,0l-0.4,1.5c0.1,0.5,0.4,0.8,0.9,0.8l0,0.3l-1.1,0.2l-0.2,0l0-0.8c0-0.3-0.4-0.5-1.2-0.4
	c0-0.2,0.4-0.4,1.1-0.7l0.2,0L350.3,72.9z M359.8,73.4l2-0.3c0.5,0,0.9,0.1,1,0.4c-0.6,0.7-1.5,1.1-2.4,1.3l-0.2,0L359.8,73.4z
	 M378.5,7.4l-0.3,0.3l0.1,2.3l0.2,1.5l-0.1,1.2l0.1,1.6c0,0.2,0.2,0.3,0.7,0.5l3.8-0.4l1.3,0.3l0.3-0.3l0-0.3
	c-0.9-0.1-1.3-0.2-1.3-0.4l2.1-0.1l0.3-0.3c0-0.4-0.9-0.7-2.7-1c0-0.2,0.4-0.4,1.1-0.6c1.3,0.1,2,0.6,2,1.4l-0.8,1.2l0,0.2l3.3-0.2
	l0.2-0.2c-0.5-1-1.2-2-2-2.9l-4.3-0.8l-0.2,0c-0.3,1-0.5,1.5-0.7,1.5c0-0.7-0.2-1-0.5-1l-1.8,0.1c0.3-0.4,0.5-1,0.6-1.5l0.3,0
	l1.2,0.8l0.5-0.4l-1.2-0.8l0-0.2l0.2-0.2l1.8,0.2l0.2,0c0.2,0,0.4-0.3,0.6-1c0.7,0.2,1.3,0.5,1.8,0.9c2,2.2,3.5,3.3,4.6,3.2l0.2,0
	l0.3-0.3l-1.2-1.1l0-0.2l3.8-0.5l0.2,0l-0.3,0.3l0.4,1.6l1-0.2l0.2,0c-0.3,0.4-0.6,0.8-0.6,1.3l0,0.3l0.4,0.5l0.2-0.2l4,0.3l0.7,0
	c0.1-1,0.2-1.5,0.4-1.5l0.2,0l0.5,0.3l1.3-0.4l0,0.2l0.2,0.2c0,0.2-0.2,0.3-0.6,0.5l0.3,0.3l1.5-0.1L403,13l-0.1-1.6l1.2,0.3l0.5,0
	c0.6-0.6,1.3-1,2.1-1.3l0.8,0l0-0.5L406.7,9l0-0.2l1.1-0.2l0.2,0c0.7-0.1,1.4,0.4,1.7,1.1c-1.7,0.1-3.6,1.2-5.9,3.4l0,0.2l0.2,0
	l0.2-0.2l1.6-0.1l11-0.2l0.2,0c2.3-0.1,4.5-0.5,6.7-1.3c0.8,0.7,1.9,1.1,3,1l1.6-0.1l0.3-0.3l-0.3-5.2c0-0.7-0.2-1.4-0.6-1.9
	l-3.3,0.3l-1,0.1l-14.9,0.5l-0.5,0c-3,0.1-6,0.7-8.8,1.8c0-0.6-0.7-1-1.9-1.2l-0.8,0l-1,0.4l-4,2.3c-0.9-1-1.5-1.6-1.7-1.6l-0.3,0.8
	l-0.5,0l0.3-0.7l-1.4-0.8l-1,0.1l-1.3,1.2c0-0.7-1.2-1-3.5-1.1l-3.1,0.3L378.5,7.4z M386.6,7.8l0.5-0.2l1.8,0.7c0,0.8,0.4,1.1,1,1.1
	l0,0.2c-0.4,0.1-0.8,0.3-1.1,0.7l-0.3,0l0-0.2C387.3,9.1,386.6,8.3,386.6,7.8L386.6,7.8z M396.3,7.8l0.8-0.5l0.3,0l1,0.9L397,8.9
	l-0.7-0.9L396.3,7.8z M395.7,8.6l1.2,0.3l0,0.2l-0.5,0.2c0,0.2,0.2,0.3,0.5,0.3l0,0.3l-0.7,0c-0.4-0.1-0.7-0.4-0.9-0.8L395.7,8.6z
	 M422.5,9c-0.1-1,0.5-1.6,1.7-1.9c0.2,0,0.4,0.3,0.5,0.8c0,0.3-0.7,0.6-2.1,1.1L422.5,9z M397.6,10.2c0.2-0.6,0.8-1,1.4-1.1l0.3,0
	c-0.4,0.5-0.6,1.2-0.7,1.8l-0.2,0c0-0.4-0.3-0.6-0.9-0.6L397.6,10.2z M391.9,12.3c-0.4,0.1-0.8,0.2-1.1,0.6l1.4,0.8l0.3,0l0.3-0.3
	l0-0.5l-0.5-0.5L391.9,12.3z M414.2,16c-1.8,0.1-3.6,0.4-5.4,0.8l0,0.3l0.8,0.4l-0.3,0.3l-0.5,0c-0.8,0-1.5-0.5-1.7-1.2l-0.3,0
	c0,0.4-0.3,0.7-0.9,0.7c-0.9-0.4-1.9-0.6-2.8-0.7c-1.1,0.1-2.3,0.4-3.2,1c-1.9-0.4-3.8-0.6-5.8-0.5l-2.1,0.1
	c-2.8,0.1-4.6,1.3-5.4,3.6c0.1,0.4,0.3,0.6,0.5,0.6l1.5-0.1l0.2-0.2c0.7,0.3,1,0.7,1,0.9l-0.6,0.4l-1.8-0.6l-0.7,0l-0.3,0.3l1.5,1.1
	l0,0.5c-1,0.6-1.5,1.1-1.6,1.4l0.6,9.2l0.2,4.1l-0.1,2l1.2,0.4l0.2,0c1.9-2.5,3.2-3.8,3.9-3.8l0-0.2l-0.9-0.8l0-0.2
	c0.7,0,1-0.2,1-0.4c-0.2-0.4-0.6-0.6-1-0.6l0-0.2l0.2,0c1.3,0.4,2,1.1,2.1,2.2l0,0.5c0,0.6-0.2,1.1-0.6,1.5l-1.8-0.6l-1,0.2
	c-0.5,2.1-1,3.2-1.5,3.2l-0.3,0l-1.2-0.1l0,0.2l-0.2,0.2l0.1,1l0.6,2.4l-0.2,1.8l0,0.2l2.3,0.2c1.5-0.2,3-0.6,4.4-1.2l0-0.2
	l-0.3-0.3c0-0.6,0.3-1.1,0.7-1.5l0.5,0l1.2,0.9l0.6-0.7l-0.1-1.5l0.3-0.3l3.1-0.2l9.6-0.8l3.5,0.1l0-0.2l-0.2-1c0-0.8,0.6-1.4,2-1.8
	l0.3,0c-0.9,1-1.4,1.8-1.4,2.4l0,0.2l0.3,0.3l1.8-0.1c2.8-0.1,4.2-1.3,4.1-3.5l0-0.2c0-0.7-0.3-1.3-0.7-1.8
	c-1.4-1.5-3.8-2.1-7.2-1.9c-2.6,0.2-5.2,0.8-7.6,1.7l0,0.3c0.8,0,1.7,0.1,2.5,0.4l0,0.2l-0.3,0c-0.3,0.9-0.6,1.3-0.8,1.4l-0.3,0
	l-0.2-0.2l0-0.2l0.2-0.2l0-0.3l-1.9-1.2l0.1-0.5l0-0.2l-1.5,0.4c-1.6-0.4-3.2-0.7-4.8-0.7l-1,0.1l-0.2,0.2c-0.5,1.8-1.1,2.7-1.8,2.7
	l-0.2,0c0.8-1.4,1.2-2.9,1.4-4.5c-0.1-1.2-0.5-2.3-1.2-3.2c0.9,0,1.3-0.6,1.2-1.5l-0.5-3.9c0-0.8,0.9-1.2,2.7-1.3l7.6,0.1l0.3,0
	c1.3,0,2.5-0.5,3.6-1.2l0.2,0c0,0.2,0,0.4-0.1,0.5c-0.1,0.1-0.3,0.2-0.5,0.2l0,0.3l6.6-0.2c3.1-0.2,4.8-1.2,5.1-3.2l0-0.2
	c-1,0.1-1.7-0.8-2.1-2.5l0-0.3l0.3,0l0.8,0.4l0.3-0.3l0-0.2C419.9,16.5,417.7,16,414.2,16L414.2,16z M388.2,19.2
	c0.5-0.6,1.3-1,2.1-0.9l3,0.5l0,0.2l-0.8,0.2l-4.1,0.1L388.2,19.2z M405.9,17.9l2.2,0.5l0,0.2l-0.3,0.3l-2.2-0.4l0-0.2L405.9,17.9z
	 M400.9,20.7l0.8-0.2l1-0.1c0.3,0,0.5,0.2,0.5,0.8l0.3,0l0-0.3l0.2,0l0,0.2c-0.4,0.6-1.1,1-1.9,1.1c-0.2-0.9-0.5-1.3-0.9-1.3
	L400.9,20.7z M389.5,24.4l1,0.1l0.2,0l0.2-0.2l0.2,1.5c-1-0.2-1.5-0.5-1.5-0.7L389.5,24.4z M392.6,40.5c0.6,0,1.8-0.7,3.5-2L397,39
	c0,0.2-0.4,0.4-1.3,0.6c0,0.5,0.3,0.9,0.7,1.1l1.3-0.1l0,0.3c0,0.2-0.3,0.5-0.8,0.7l-1.8-0.1l-0.2,0l-0.2,0.2l0.4,0.8l0,0.2
	l-1.7-0.2l0,0.2l-0.2,0.2l0,0.8l-1.2-0.4l0-2.5l0-0.2L392.6,40.5z M406.7,39.1l0.5-0.2l2.2,1l0.2,0c0,0.7-0.5,1.3-1.6,1.6l-0.2,0
	l0-0.2l0.3-1.5c-0.2-0.4-0.6-0.6-1.3-0.6L406.7,39.1z M394.9,40.2c-0.8,0-1.6,0.4-2.1,1.1l0,0.3l1.3-0.1c0.5,0,0.9-0.2,1-0.5l0-0.7
	L394.9,40.2z M395.9,46.6c-0.7,1-2.2,1.6-4.5,1.7l-1.6,0.1c-0.7,0.1-1.5,0-2.1-0.2l0,0.2l-0.2,0.2l0,0.8l0.9,0.8
	c-0.5,1.4-0.7,3-0.6,4.5l0.1,2.1c0.1,1.7,0.5,3.4,0.9,5c0.1,1.9,2.8,2.6,8.2,2.4l2.9-0.2c2.3-0.1,4.5-0.5,6.7-1.2
	c3.1,0.4,6.3,0.6,9.4,0.5l2.3-0.1c4.2-0.2,6.1-1.9,6-4.9l-0.2-0.8c-1.2-1.8-3.9-2.6-8.3-2.4l-4.9,0.3l-0.5,0.7l0,0.2l-2.6-0.2
	l-0.7,0c-0.8,0-1.3,0.3-1.4,0.7c-2.2-0.6-4.4-0.7-6.6-0.5c-1.2,0.1-2.3-0.7-2.6-1.8c0.6-0.5,0.9-1.9,0.8-4.3l-0.2-3.3l-0.3-0.3
	L395.9,46.6z M390.8,55.2c-0.1-1.9,0.7-2.8,2.5-2.9c-0.3,1.9-1.1,2.9-2.3,2.9L390.8,55.2z M396.5,59l0.5-0.2l1.3,0.3
	c-0.9,1.7-1.5,2.5-1.8,2.6l-0.2-0.2l0.6-0.9l-0.1-1l-0.4-0.5L396.5,59z M414.9,60.5l0.8-0.2l0.7,0l0.1,1.2l0.4,0.5l0,0.2l-0.5,0
	C415.7,61.7,415.2,61.1,414.9,60.5L414.9,60.5z M429.2,65.3c-1.8,0.3-3.5,1-5,1.9l-0.2,0c0-0.2,0.3-0.4,1-0.5l0-0.7l-12.1,0.3
	c-3,0.2-6,0.6-9,1.1l0,0.3l0.5,0l0,0.3l-0.5,0.2c-0.4-0.2-0.9-0.3-1.3-0.3l0-0.2l0.3-0.5l0-0.3l-0.2-0.2l-1.5,0.2l-2.1-0.1
	c-1.9,0.1-3.1,0.5-3.9,1.4l-0.2,0l-1.4-1.1l-0.3,0c0.1,1-1,1.5-3,1.6l-0.3,0c-0.2,0-0.4-0.4-0.7-1.1l0.2,0l-0.3-0.3l-7.4,0.4
	l-0.3,0.3l0.2,4.6c0,0.2,0.4,0.4,1.2,0.6c1.4-0.6,2.9-1,4.4-1.2l0.5,0c1.4-0.2,2.8,0.3,3.8,1.3c-1.5-0.3-3-0.4-4.5-0.4l-0.8,0
	c-1.5,0.1-3,0.6-4.4,1.4l0,0.3L390,75l20.8-1.3l0.2,0c0.5-0.9,1.5-1.5,2.5-1.6l0.2,0l0,0.3c-1.2,0.3-1.8,0.6-1.8,0.9l0,0.2l0.2,0.2
	l0.2,0l0.2-0.2l1.3-0.1l2.6,0.2l0.3,0c0.5,0,1-0.4,1.1-0.9l-0.4-0.6l0-0.2c0.5-0.1,1.1-1,1.8-2.6c0.7,0.2,1.1,0.5,1.2,0.8l0,0.2
	l-1,0.2l0,0.3l0.8,0.1l5.2-0.3l1.6-0.2c0,0.9,0.6,1.3,1.5,1.2l0,0.5l-0.5,0.2c-0.5,0-1.2-0.4-2-1.4l-0.2,0l-0.2,0.2l-0.5,0.7l-0.5,0
	l-1-0.8c-0.2,0-0.3,0.3-0.3,0.8l-1.3,0.1l-0.6,0.5c0,0.6,3.3,0.7,9.9,0.5l0.3-0.5l0-0.5l-0.7-4.1l0.3-1.3
	C431,65.8,430.1,65.3,429.2,65.3L429.2,65.3z M393,69.1l1.5-0.4l0.2,0l0.2,0.2l-0.8,0.7l0.6,1.4l0,0.2c-1.2-0.7-1.9-1.4-1.9-2
	L393,69.1z M409.5,70.3c0-0.3,0.3-0.5,1-0.5c0.1-0.7,0.2-1,0.4-1l0.3,0c1.1,0,1.7,0.3,1.7,0.9l0,0.2l-1.6,0.1l-1.8,0.6L409.5,70.3z
	 M396.4,72.8c0-0.4,0.6-0.7,1.8-0.9l0.3,0l0.5,0.5l0,0.3L396.4,72.8z M399.6,73c0.1-0.4,0.5-0.8,0.9-0.7l1.3-0.1l0,0.2
	c-0.1,0.3-0.4,0.5-1,0.5L399.6,73z M416,72.6l0.5-0.2l0.3,0l-0.5,0.5L416,72.6z M439.2,4.4l-21.8,1.1l-0.2,0.2l0.4,3.9l0,3.1
	l0.2,0.2l0.2-0.2l7.7-0.2l2.6-0.3l0-0.3c-0.7-0.2-1-0.4-1-0.6l0-0.5c1.7,0.3,2.7,0.8,3.2,1.5l1.1-0.2l20-1l20-0.9l0-0.2l0.2-0.2
	l-0.4-6.9L470,3.3L465.4,3l-0.8,0c-0.6,0-1.1,0.2-1.6,0.6l0.6,1.3l0,0.3c-0.6,0-1.3-0.6-2.1-1.9l-11.6,0.4c-1.1,0-2.3,0.4-3.2,1
	c-0.5-0.5-1.3-0.8-2-0.7l-1.1,0.1c-2.4,0.5-3.6,1-3.5,1.5l-0.2,0C439.6,4.8,439.4,4.4,439.2,4.4L439.2,4.4z M427.3,6.3l1.5,0.3
	l0,0.2l-0.6,1l-0.3,0c-0.2,0-0.4-0.3-0.5-1L427.3,6.3z M419.9,8.7l1.5-0.4l0.1,1.1l-1.1,0.1l-0.3-0.3L419.9,8.7z M456.2,8.3l1.7-1.4
	l0.4,0.8c-0.4,0.6-1.1,0.9-1.8,0.9L456.2,8.3z M460.3,8.9l2.1-0.8l0.1,1.1l-0.7,0L460,9c-0.3,0-0.5,0.4-0.4,1l-0.3,0l-0.2-0.2
	l0.3-1.2l0.8,0.1L460.3,8.9z M437,11.4c0.5-0.8,1-1.2,1.4-1.2l0.7,0.3c0,0.5-0.4,0.8-1.4,0.9L437,11.4z M453.3,13.8l-5.1,0.4
	l-2.1,0.1l-2,0.3l0-0.2l-0.5,0c0.1,1-0.5,1.5-1.6,1.7l-0.4-0.8l-3.2,1.8l-0.2,0l0.1-0.5c0-0.3-0.5-0.7-1.4-1.2l0.3-0.5l0-0.2
	l-0.2,0.2l-6.4,0.2c-1.5,0.1-3,0.4-4.4,0.9c-0.8,0.6-1.2,1.7-1.1,3.3l0,0.7c0.1,0.5,0.2,0.8,0.4,0.8c0.1,1.3,2,2,5.9,2l2.1-0.1
	c3.8-0.2,6,0,6.8,0.5l0.7,16.7c0.2,2.4,0.6,4.7,1.2,7c-0.4,1.1-0.6,2.3-0.6,3.5c0.1,1.3,0.7,2.4,1.6,3.2l-0.7,0
	c-0.7,0-1,0.5-0.9,1.4l0.1,1c0.2,3.1,1.9,5.1,5.2,5.8l0.7,0c1.2-0.2,2.3-0.9,3-2l-0.3-0.3l-0.8,0l-2.1,0.9l-0.2,0l0.6-0.9
	c0-0.2-0.3-0.4-0.8-0.4l0-0.2l0.5,0l3.6,0.1c0.5,0,0.8-0.9,0.7-2.5c-0.1-0.6-0.4-1.2-0.7-1.8c0.3,0,0.5-0.1,0.5-0.4l-0.1-2l-0.2-0.2
	l-1.5,0.4c-0.4,0-0.8-0.2-1-0.6l0-0.2l0.2,0l0.2,0.2l0.2,0l2.1-0.8L450,22.2l0.2,0.2l3.4-0.7c1-0.1,1.6-0.8,1.7-2.4
	c1.3,0.6,2.6,1,4,1.1l0,0.2c-0.8,0-1.3,0.3-1.4,0.7l0,0.2l0.3,0.3l1.2-0.1c2.2-0.2,3.3-0.5,3.2-1l0-0.2l-1,0.1l-1.1,0.2l0-0.2
	l-0.3,0l0-0.3l0.8-0.2l2.5,0.5c1.1-0.9,1.7-2.2,1.8-3.5l0-0.5C465,14.4,461.1,13.4,453.3,13.8L453.3,13.8z M447.3,17.4
	c-0.1-1.1,1-2,3.3-2.8c-0.8,2.7-1.8,4-2.9,4.1l-0.5,0l0-0.2l0.5-0.2L447.3,17.4z M442.4,17.8c0-0.2,0.3-0.4,0.8-0.5l1.8,0.4
	c0,0.5-0.4,0.8-1.4,0.9l-0.3,0l0.1-0.8L442.4,17.8z M458.7,18.6c0.4-0.7,1.1-1.1,1.9-1.2l0.5,0.1c-0.7,0.9-1.3,1.4-1.7,1.4
	L458.7,18.6z M435.4,21.6c0.4-1.2,1.1-1.9,2-1.9c0.5,0.2,0.8,0.4,0.9,0.6l0,0.3l-1,0.1c-0.5,0.5-1.1,0.8-1.8,0.9L435.4,21.6z
	 M444.1,22.5c0.8,0,1.2,0.3,1.2,0.9l-0.3,0.8l0.2,0.2c1.9,0.2,2.8,0.5,2.8,1l-0.3,0.3c-0.9-0.8-2.1-1.1-3.3-1l0.3-0.5l-0.6-1.6
	L444.1,22.5z M444,26.8l0.2,0l2.9,1.2c0,0.2-0.3,0.5-0.8,0.7l-1.8-0.2l0.1-0.8l0-0.3c0-0.2-0.2-0.3-0.5-0.3L444,26.8z M444.4,30.5
	l2.3,0.7l0,0.2l-1.6,0.4l-0.2,0l0-0.2l0.3,0l0-0.3c0-0.3-0.4-0.5-1-0.4l0-0.2L444.4,30.5z M445.2,33l0.5,0l2.9,1.2l0,0.7l-0.2,0.2
	l-1.3-0.3l-0.3,0.3c-0.9-0.3-1.5-1-1.6-1.9L445.2,33z M444.4,44.3l0.8,0c0.7,0.8,1.1,1.3,1.4,1.2l-0.5,0.5c-0.7,0-1.4-0.2-2-0.6
	L444.4,44.3z M447.2,47.6l1.6,0.1l-0.3,0.7l-1.6-0.1L447.2,47.6z M443.8,50.6l0.5-0.5L447,50l0,0.5c-1.3,0.1-2,0.4-1.9,0.9
	C444.8,50.9,444.3,50.6,443.8,50.6L443.8,50.6z M438.1,65.2l-17.2,1.1c-0.3,0-0.5,0.1-0.5,0.4l0.1,1.3c0,1.1,0.4,2.1,1.1,2.9
	c-0.7,0-1,0.2-1,0.5l0.1,1.8l0.3,0.3l1.5-0.1c6-0.3,10.8-0.7,14.6-1.1l4.4,0.1c0.2-1.1,0.4-1.7,0.6-1.7l0.3,0l0,0.2l-0.3,0.5l0,0.7
	l0.3,0.3l2-0.1c1.1-0.1,1.6-0.5,1.6-1.2c0.7,0.5,1.5,0.8,2.3,0.9c0.6,0,1.1-0.4,1.3-1.1l0.5,0.5l-0.3,0.5l0,0.2l24.6-1.3l0.3-0.3
	l-0.1-1c0-0.7-0.4-1.2-1.1-1.4l0.8-0.9l-0.2-1.6l0.1-1.6c-6.2,0-12.2,0.1-17.9,0.4c-3.8,0.1-7.6,0.6-11.3,1.4
	C442.9,65.3,440.5,65.2,438.1,65.2L438.1,65.2z M442.4,65.8c1.8,0.6,2.7,1,2.7,1.3l0,0.2l-0.2,0l-1.3-0.4l-0.5,0.5
	c-0.3,0-0.5-0.5-0.7-1.3L442.4,65.8z M437,68.2c0-0.4,0.5-0.8,1.6-1.2l0.2,0c-0.2,0.6-0.6,1.1-1.1,1.5l-0.2,0L437,68.2z M427.5,69.2
	l0.2,0l0.2,1.1l0,0.3l-0.5,0c-0.5-0.5-0.9-0.8-1.2-0.8l0-0.2l0.2,0l0.7,0.1C427.4,69.9,427.5,69.7,427.5,69.2L427.5,69.2z
	 M437.9,70.8l0.5-0.5l0.3,0c1.2-0.1,1.8,0.1,1.8,0.4l0,0.2c0,0.2-0.3,0.4-0.8,0.5C438.6,71.2,438,71.1,437.9,70.8z M461.7,3.2
	l-0.2,0.2l0.3,2l0.2,3.8c0,0.8,0.2,1.2,0.6,1.3l3.8-0.2c0.9,0,1.9-0.3,2.6-1c0.1,0.5,0.3,0.8,0.5,0.8l16.2-0.9
	c0.7-0.9,1.9-1.5,3-1.5l0,0.3c-1.3,0.2-1.9,0.5-1.9,0.8l0.3,0.3l4.1-0.2l1.7-2.6l0.2,0l0.2,0.6c0,0.2-0.3,0.7-1.1,1.4l0,0.2
	l13.6-0.2c4.6-0.2,9.2-0.6,13.7-1.4l-0.8-5.4l0.1-1.2l0-0.2l-52.6,2.9L461.7,3.2z M478.8,3.3l1-0.1c0.2,0,0.4,0.3,0.5,1
	c-0.3,0.8-0.5,1.2-0.8,1.2l-0.3,0l-0.2-0.2l0.1-0.8l0-0.7L478.8,3.3z M496.3,4l1.1-0.4l0,0.2c1.6,0.4,2.3,0.9,2.4,1.4
	c-2.3-0.3-3.5-0.6-3.5-1L496.3,4z M487,11.7l-0.5,0.4c0.1,1.7-0.5,2.7-1.7,2.7l-0.2,0l0-0.3c0.8-0.7,1.2-1.4,1.2-1.9l0-0.2l-0.2-0.2
	c-3.3,0.2-6.4,1.4-8.8,3.6c-5.4,5.2-7.9,12.1-7.5,20.4l0.1,1.6c0.2,5.5,2.2,10.7,5.6,15c3.2,2.8,5.5,4.1,6.9,4.1l0.2,0l-0.1,0.5
	l0,0.3c0.8,1.1,5.1,1.7,12.8,2c3.7-0.2,6-1.1,6.9-2.8l0-0.2l-0.8,0l-0.3-0.3l0-0.2l0.3-0.5l0-0.3l-0.2-0.2l0.6-0.2
	c1.7,0,3.4,0.2,5.1,0.6c0.9-0.3,1.8-0.9,2.4-1.6c4.6-4.9,6.6-11.7,6.2-20.4c-0.1-3.4-0.9-6.8-2.2-9.9c-1.1-0.3-1.7-0.6-1.7-0.9
	l0.6-0.7l0-0.5c-4-7.3-11.3-10.7-22.1-10.2L487,11.7z M489.2,13.4l1.3-0.1c0.5,0,0.9,0.1,1,0.4l0,0.3c-0.2,0.5-0.6,0.8-1.1,0.7
	l-1.1,0.1L489.2,13.4z M477.4,19.9c0.3-0.7,0.9-1.1,1.6-1.2l0.5,0c0,0.8-0.6,1.2-1.9,1.2L477.4,19.9z M478.9,36.3
	c-0.1-2.6,0.2-5.2,0.9-7.8c1.7-6,5.5-9.2,11.3-9.5l0.2,0c5.4-0.3,9.3,2.2,11.9,7.4l1-0.4l0.3,0l-0.2,2l1.1,9l0.1,1l-0.2,3.1
	c0,0.2,0.1,0.4,0.2,0.5c0.1,0.1,0.3,0.2,0.5,0.1l0,0.2c-1.8,0.9-2.7,2.2-2.6,3.9l0,0.5l0.2,0.2c-2.4,1.6-3.6,3-3.6,4.1l-0.7-0.3
	c-1.8,0.3-2.7,1-2.7,2.1c-4.3,0.2-9.2-1.1-14.7-4l0.3-1.2l0-0.2l-1.5-2.7l-5.2,1.9l-0.2,0c0.9-1.2,2.2-1.9,3.7-2.2l1.1-0.1l0.2-0.2
	C479.6,41.5,479.1,38.9,478.9,36.3z M504.9,24.1c0-0.4,0.5-0.6,1.6-0.7l2.3,0.2l0,0.2l-2.3,0.9L504.9,24.1z M470.4,33.8
	c0.1-0.4,0.3-0.7,0.5-0.7l0.2,0c0.9,0.7,1.5,1.1,1.9,1.1l0,0.2l-0.2,0.2L470.4,33.8z M475.6,34.8l0.2,0l1.4,1.1l-0.3,0.3l-1.8,0.1
	l-0.2-0.2l0.1-0.5C475.4,35.4,475.6,35.1,475.6,34.8L475.6,34.8z M504.2,54c0-0.3,0.3-0.5,1-0.5l0.8,0l0.3,0.3l0,0.5l-0.3,0
	l-1.3-0.3l-0.3,0l-0.2,0.2L504.2,54z M476.4,63.2c-7.8,0.5-11.6,0.9-11.6,1.3l0.4,4.9l-0.1,1.5l0.7,0.3l19-1.2l1.1-0.1
	c0.4-0.7,1.1-1.2,1.9-1.4c0.6,0.1,0.8,0.3,0.8,0.4c0,0.3-0.2,0.5-0.6,0.5l0,0.3l6.7-0.4l26.7-1.2c0.8-0.1,1.1-0.3,1.1-0.6l0-0.8
	l-0.4-3.6l0.1-2l-0.2-0.5l-0.2,0.2l-13.8,0.6c-2.1,0-4.1,0.5-5.8,1.6l-0.7,0l-1.2-1.3l-2.8,0.3L476.4,63.2z M486.1,66.6
	c0-0.3,0.5-0.5,1.6-0.7l0,0.3c-0.2,0.5-0.7,0.9-1.3,0.9l-0.3,0L486.1,66.6z"/>
</svg>
